<?xml version="1.0" encoding="utf-8"?>
<svg xmlns="http://www.w3.org/2000/svg" viewBox="0 0 50 50" fill="#323232"><path d="M 24.833984 2.0488281 C 24.172419 2.0525352 23.510422 2.0854691 22.851562 2.1464844 C 21.098319 2.3088476 19.364731 2.6761938 17.691406 3.25 C 10.970102 5.3541941 5.4619007 10.866991 3.2558594 17.576172 C 0.84631237 24.396034 1.9887268 32.297884 6.1796875 38.171875 C 10.17028 44.045234 17.03813 47.78907 24.166016 48 C 24.167316 48.000038 24.168622 47.999962 24.169922 48 C 31.707663 48.310076 39.202132 44.771739 43.609375 38.685547 A 1.0001 1.0001 0 0 0 43.615234 38.679688 C 46.43941 34.704912 48 29.817391 48 25 C 48 24.76871 47.985723 24.537748 47.978516 24.306641 A 1.000544 1.000544 0 0 0 47.964844 23.832031 C 47.605172 16.969249 44.096175 10.297502 38.373047 6.3652344 A 1.0001 1.0001 0 0 0 37.896484 6.0351562 A 1.0001 1.0001 0 0 0 37.894531 6.0351562 C 36.287062 4.9254138 34.540282 4.0542066 32.71875 3.4042969 A 1.0001 1.0001 0 0 0 32.275391 3.1386719 C 30.887485 2.7421275 29.505523 2.3123474 27.867188 2.203125 A 1.0001 1.0001 0 0 0 27.765625 2.2011719 A 1.0001 1.0001 0 0 0 27.623047 2.2167969 C 26.697039 2.109545 25.76577 2.0436069 24.833984 2.0488281 z M 24.845703 4.0566406 C 25.066574 4.0555989 25.286934 4.0722645 25.507812 4.078125 L 25.292969 4.2929688 A 1.0001 1.0001 0 0 0 25.683594 5.9492188 L 28.458984 6.875 L 30.292969 8.7070312 A 1.0001 1.0001 0 0 0 31.96875 8.2480469 L 32.669922 5.5097656 C 34.13349 6.0821032 35.533099 6.8188098 36.828125 7.7207031 A 1.0001 1.0001 0 0 0 36.855469 7.7382812 C 36.897015 7.7652863 36.935255 7.7968836 36.976562 7.8242188 L 39 10.351562 L 39 11 A 1.0001 1.0001 0 0 0 39.634766 11.931641 L 41.851562 12.800781 L 42.103516 16.076172 A 1.0001 1.0001 0 0 0 42.115234 16.177734 L 43.015625 21.177734 A 1.0001 1.0001 0 0 0 43.105469 21.447266 L 45.105469 25.447266 A 1.0001 1.0001 0 0 0 45.958984 26 C 45.758789 30.063223 44.364838 34.171204 41.984375 37.521484 C 38.90943 41.763232 34.109559 44.661571 28.933594 45.642578 A 1.0001163 1.0001163 0 0 0 28.525391 45.150391 L 36.539062 38.849609 L 38.447266 37.894531 A 1.0001 1.0001 0 0 0 38.949219 37.316406 L 39.925781 34.382812 L 40.894531 32.447266 A 1.0001 1.0001 0 0 0 40.970703 31.757812 L 40.470703 29.757812 A 1.0001 1.0001 0 0 0 39.775391 29.039062 L 36.523438 28.109375 L 35.707031 27.292969 A 1.0001 1.0001 0 0 0 35.447266 27.105469 L 33.615234 26.189453 L 32.740234 25.226562 A 1.0001 1.0001 0 0 0 31.974609 24.900391 L 27.974609 25 A 1.0001 1.0001 0 0 0 27.552734 25.105469 L 25.923828 25.919922 L 23.34375 25.060547 L 20 23.722656 L 20 19.720703 L 22.162109 19 L 23.382812 19 L 23.605469 19.447266 A 1.0001163 1.0001163 0 1 0 25.394531 18.552734 L 25.216797 18.197266 L 28.636719 14.777344 L 31.554688 12.832031 A 1.0001 1.0001 0 0 0 31.707031 11.292969 L 29.707031 9.2929688 L 28.707031 8.2929688 L 27.849609 7.4355469 A 1.0001 1.0001 0 0 0 26.798828 7.0078125 A 1.0001 1.0001 0 0 0 26.791016 7.0097656 A 1.0001 1.0001 0 0 0 26.183594 7.4023438 L 24.78125 8.8046875 L 24 8.453125 L 24 6.0449219 A 1.0003223 1.0003223 0 0 0 23.998047 5.9550781 A 1.0001 1.0001 0 0 0 23.998047 5.9453125 A 1.0003223 1.0003223 0 0 0 23.998047 5.9414062 A 1.0001 1.0001 0 0 0 22.984375 4.9863281 A 1.0001 1.0001 0 0 0 22.818359 5.0039062 L 19.246094 5.09375 L 18.974609 4.9453125 C 20.296403 4.5417125 21.657506 4.2684259 23.035156 4.1425781 C 23.636622 4.0876344 24.241062 4.0594924 24.845703 4.0566406 z M 28.115234 4.2988281 C 29.010531 4.4334254 29.896288 4.629342 30.767578 4.8769531 L 30.466797 6.0527344 L 29.707031 5.2929688 A 1.0001 1.0001 0 0 0 29.316406 5.0507812 L 27.851562 4.5625 L 28.115234 4.2988281 z M 16.458984 5.84375 A 1.0001 1.0001 0 0 0 16.517578 5.8769531 L 18.517578 6.9765625 A 1.0001 1.0001 0 0 0 19.025391 7.0996094 L 22 7.0253906 L 22 9.0996094 A 1.0001 1.0001 0 0 0 22.589844 10.011719 L 24.589844 10.912109 A 1.0001 1.0001 0 0 0 25.707031 10.707031 L 27 9.4140625 L 27.292969 9.7070312 L 28.292969 10.707031 L 29.429688 11.84375 L 27.445312 13.167969 A 1.0001 1.0001 0 0 0 27.292969 13.292969 L 23.585938 17 L 22 17 A 1.0001 1.0001 0 0 0 21.683594 17.050781 L 18.683594 18.050781 A 1.0001 1.0001 0 0 0 18 19 L 18 22.882812 L 16.818359 22.291016 L 15 16.837891 L 15 13.236328 L 15.894531 11.447266 A 1.0001 1.0001 0 0 0 16 11 L 16 8 A 1.0001 1.0001 0 0 0 15.447266 7.1054688 L 14.685547 6.7246094 C 15.262892 6.4015506 15.854318 6.107461 16.458984 5.84375 z M 12.720703 7.9785156 L 14 8.6171875 L 14 10.763672 L 13.105469 12.552734 A 1.0001 1.0001 0 0 0 13 13 L 13 17 A 1.0001 1.0001 0 0 0 13.050781 17.316406 L 15.050781 23.316406 A 1.0001 1.0001 0 0 0 15.552734 23.894531 L 17.552734 24.894531 A 1.0001 1.0001 0 0 0 17.628906 24.927734 L 22.628906 26.927734 A 1.0001 1.0001 0 0 0 22.683594 26.949219 L 25 27.720703 L 25 28.585938 L 24.292969 29.292969 A 1.0001 1.0001 0 0 0 24 30 L 24 32 A 1.0001 1.0001 0 0 0 24.050781 32.316406 L 25.050781 35.316406 A 1.0001 1.0001 0 0 0 25.601562 35.917969 L 27.642578 36.804688 L 27.878906 37.142578 L 25.064453 44.648438 A 1.0001 1.0001 0 0 0 25.552734 45.894531 L 25.761719 46 C 25.255665 46.0171 24.748985 46.021117 24.242188 46 A 1.0001 1.0001 0 0 0 24.228516 46 C 17.761991 45.809808 11.437852 42.35866 7.828125 37.039062 A 1.0001 1.0001 0 0 0 7.8144531 37.019531 C 4.0127811 31.697189 2.957794 24.408765 5.1425781 18.234375 A 1.0001 1.0001 0 0 0 5.1503906 18.210938 C 6.4911934 14.124688 9.2295555 10.498079 12.720703 7.9785156 z M 44.232422 16.640625 C 45.033104 18.48644 45.580371 20.443295 45.833984 22.433594 L 44.958984 20.681641 L 44.232422 16.640625 z M 26.023438 20.996094 A 1.0001 1.0001 0 0 0 25.683594 22.949219 L 28.683594 23.949219 A 1.0005646 1.0005646 0 1 0 29.316406 22.050781 L 26.316406 21.050781 A 1.0001 1.0001 0 0 0 26.023438 20.996094 z M 31.568359 26.910156 L 32.259766 27.671875 A 1.0001 1.0001 0 0 0 32.552734 27.894531 L 34.408203 28.822266 L 35.292969 29.707031 A 1.0001 1.0001 0 0 0 35.724609 29.960938 L 38.669922 30.802734 L 38.939453 31.882812 L 38.105469 33.552734 A 1.0001 1.0001 0 0 0 38.050781 33.683594 L 37.181641 36.291016 L 35.552734 37.105469 A 1.0001 1.0001 0 0 0 35.380859 37.214844 L 27.730469 43.234375 L 29.935547 37.351562 A 1.0001 1.0001 0 0 0 29.818359 36.425781 L 29.119141 35.425781 A 1.0001 1.0001 0 0 0 28.699219 35.082031 L 26.808594 34.259766 L 26 31.837891 L 26 30.414062 L 26.707031 29.707031 A 1.0001 1.0001 0 0 0 27 29 L 27 27.617188 L 28.248047 26.994141 L 31.568359 26.910156 z" fill="#323232"/></svg>
