<?xml version="1.0" encoding="utf-8"?>
<svg xmlns="http://www.w3.org/2000/svg" viewBox="0 0 64 64" fill="#e23175"><path d="M 18.34375 0.539063 C 18.070313 0.566406 17.804688 0.675781 17.578125 0.855469 C 14.699219 3.160156 12.425781 6.179688 11.007813 9.585938 L 7.476563 18.054688 C 6.1875 21.152344 6.402344 24.527344 7.84375 27.328125 L 3.203125 44.640625 C 2.988281 44.683594 2.777344 44.753906 2.578125 44.867188 C 2.117188 45.132813 1.785156 45.566406 1.648438 46.082031 L 0.589844 50.03125 C 0.304688 51.097656 0.9375 52.195313 2.003906 52.480469 L 34.136719 61.09375 C 34.308594 61.136719 34.484375 61.160156 34.65625 61.160156 C 35.003906 61.160156 35.347656 61.070313 35.65625 60.890625 C 36.117188 60.625 36.449219 60.195313 36.585938 59.675781 L 37.644531 55.730469 C 37.84375 54.984375 37.585938 54.230469 37.058594 53.742188 L 38.089844 47.550781 C 38.566406 44.6875 40.710938 42.453125 43.550781 41.855469 L 49.417969 40.621094 C 54.601563 39.527344 59.042969 36.015625 61.296875 31.222656 L 63.222656 27.128906 C 63.953125 25.570313 63.839844 23.773438 62.917969 22.320313 C 61.996094 20.867188 60.417969 20 58.699219 20 L 46.332031 20 C 44.398438 20 42.480469 19.359375 40.933594 18.199219 L 37.828125 15.875 C 36.226563 14.667969 34.320313 13.925781 32.324219 13.726563 L 26 13.09375 L 26 5.019531 C 26 4.441406 25.675781 3.929688 25.15625 3.679688 C 24.636719 3.425781 24.03125 3.496094 23.578125 3.855469 C 22.238281 4.929688 21.050781 6.160156 20 7.503906 L 20 2.019531 C 20 1.441406 19.675781 0.929688 19.15625 0.679688 C 18.894531 0.554688 18.613281 0.507813 18.34375 0.539063 Z M 18 3.117188 L 18 16.402344 C 18 16.953125 18.445313 17.402344 19 17.402344 C 19.550781 17.402344 20 16.953125 20 16.402344 L 20 14.503906 L 32.125 15.71875 C 33.757813 15.882813 35.316406 16.488281 36.628906 17.472656 L 39.734375 19.800781 C 41.625 21.21875 43.96875 22 46.332031 22 L 58.695313 22 C 59.726563 22 60.675781 22.519531 61.230469 23.390625 C 61.785156 24.265625 61.851563 25.34375 61.410156 26.277344 L 59.484375 30.371094 C 57.496094 34.597656 53.578125 37.699219 49.003906 38.660156 L 43.140625 39.894531 C 39.484375 40.664063 36.726563 43.539063 36.113281 47.222656 L 35.15625 52.988281 L 5.1875 44.960938 L 9.328125 29.503906 C 10.015625 30.292969 10.820313 30.996094 11.746094 31.582031 C 11.910156 31.6875 12.09375 31.738281 12.277344 31.738281 C 12.609375 31.738281 12.933594 31.574219 13.125 31.269531 C 13.417969 30.804688 13.28125 30.1875 12.8125 29.890625 C 9.097656 27.542969 7.628906 22.886719 9.320313 18.824219 L 12.851563 10.355469 C 14.003906 7.59375 15.769531 5.109375 18 3.117188 Z M 24 6.117188 L 24 12.894531 L 20 12.496094 L 20 10.933594 C 20.058594 10.875 20.125 10.824219 20.171875 10.75 C 21.210938 9.011719 22.496094 7.457031 24 6.117188 Z M 33 20 C 31.347656 20 30 21.347656 30 23 C 30 24.652344 31.347656 26 33 26 C 34.652344 26 36 24.652344 36 23 C 36 21.347656 34.652344 20 33 20 Z M 33 22 C 33.550781 22 34 22.449219 34 23 C 34 23.550781 33.550781 24 33 24 C 32.449219 24 32 23.550781 32 23 C 32 22.449219 32.449219 22 33 22 Z M 9.082031 40.140625 C 8.695313 40.195313 8.359375 40.472656 8.253906 40.875 L 7.734375 42.808594 C 7.59375 43.339844 7.910156 43.886719 8.445313 44.03125 C 8.53125 44.054688 8.617188 44.066406 8.703125 44.066406 C 9.140625 44.066406 9.550781 43.769531 9.667969 43.324219 L 10.1875 41.390625 C 10.332031 40.859375 10.011719 40.3125 9.476563 40.167969 C 9.34375 40.132813 9.210938 40.125 9.082031 40.140625 Z M 13.910156 41.4375 C 13.527344 41.488281 13.191406 41.769531 13.082031 42.167969 L 12.566406 44.097656 C 12.421875 44.632813 12.738281 45.179688 13.273438 45.324219 C 13.359375 45.347656 13.449219 45.359375 13.53125 45.359375 C 13.972656 45.359375 14.378906 45.0625 14.5 44.617188 L 15.015625 42.6875 C 15.160156 42.152344 14.84375 41.605469 14.308594 41.460938 C 14.175781 41.425781 14.039063 41.417969 13.910156 41.4375 Z M 18.742188 42.730469 C 18.355469 42.785156 18.019531 43.0625 17.914063 43.464844 L 17.394531 45.394531 C 17.253906 45.929688 17.570313 46.476563 18.105469 46.621094 C 18.191406 46.640625 18.277344 46.65625 18.359375 46.65625 C 18.804688 46.65625 19.207031 46.359375 19.328125 45.910156 L 19.84375 43.980469 C 19.988281 43.445313 19.671875 42.898438 19.140625 42.753906 C 19.003906 42.71875 18.871094 42.710938 18.742188 42.730469 Z M 23.570313 44.023438 C 23.183594 44.078125 22.847656 44.355469 22.742188 44.753906 L 22.222656 46.6875 C 22.082031 47.21875 22.398438 47.769531 22.933594 47.910156 C 23.019531 47.933594 23.105469 47.949219 23.191406 47.949219 C 23.632813 47.949219 24.039063 47.652344 24.15625 47.203125 L 24.671875 45.273438 C 24.816406 44.742188 24.503906 44.191406 23.96875 44.046875 C 23.835938 44.011719 23.699219 44.003906 23.570313 44.023438 Z M 28.402344 45.316406 C 28.015625 45.371094 27.679688 45.652344 27.574219 46.050781 L 27.054688 47.984375 C 26.910156 48.515625 27.226563 49.0625 27.761719 49.207031 C 27.847656 49.230469 27.9375 49.242188 28.019531 49.242188 C 28.460938 49.242188 28.867188 48.945313 28.984375 48.5 L 29.503906 46.566406 C 29.648438 46.035156 29.332031 45.488281 28.796875 45.34375 C 28.664063 45.308594 28.527344 45.296875 28.402344 45.316406 Z M 3.578125 46.597656 L 35.714844 55.210938 L 34.65625 59.15625 L 2.523438 50.546875 Z M 33.230469 46.609375 C 32.84375 46.664063 32.507813 46.945313 32.402344 47.34375 L 31.886719 49.277344 C 31.742188 49.808594 32.058594 50.359375 32.59375 50.5 C 32.679688 50.523438 32.765625 50.535156 32.847656 50.535156 C 33.292969 50.535156 33.695313 50.242188 33.8125 49.796875 L 34.332031 47.859375 C 34.476563 47.328125 34.160156 46.78125 33.625 46.636719 C 33.492188 46.601563 33.355469 46.59375 33.230469 46.609375 Z" fill="#e23175"/></svg>
