<?xml version="1.0" encoding="utf-8"?>
<svg xmlns="http://www.w3.org/2000/svg" viewBox="0 0 24 24" fill="#e23175"><path d="M 5.5 2 C 3.026562 2 1 4.026562 1 6.5 C 1 8.03307 1.9139882 9.1979049 3.09375 10.007812 L 2.8105469 10.294922 L 2.8085938 10.294922 C 0.40050095 12.739807 0.40217688 16.712268 2.8105469 19.15625 C 4.4751458 20.845461 6.8786082 21.366489 9 20.720703 L 9 23 L 15 23 L 15 20.720703 C 17.121392 21.366489 19.524854 20.845461 21.189453 19.15625 L 21.191406 19.15625 C 23.599499 16.711365 23.597873 12.738904 21.189453 10.294922 L 20.90625 10.007812 C 22.086012 9.1979049 23 8.03307 23 6.5 C 23 4.026562 20.973438 2 18.5 2 C 16.740887 2 15.249962 3.0416706 14.511719 4.5253906 C 13.591719 4.1997721 12.691351 4.008114 12 4.0175781 C 11.308916 4.0081177 10.408113 4.1995476 9.4882812 4.5253906 C 8.7498277 3.0418159 7.2586342 2 5.5 2 z M 5.5 4 C 6.7170217 4 7.7161831 4.8581813 7.9492188 5.9941406 L 8.21875 7.3144531 L 9.4042969 6.671875 C 10.263241 6.2063773 11.451682 6.0070216 11.984375 6.015625 L 12 6.015625 L 12.015625 6.015625 C 12.548318 6.007025 13.736487 6.2070399 14.595703 6.671875 L 15.78125 7.3125 L 16.050781 5.9921875 C 16.283718 4.8574201 17.282978 4 18.5 4 C 19.892562 4 21 5.107438 21 6.5 C 21 7.6710503 20.201199 8.6291857 19.123047 8.9082031 L 17.443359 9.34375 L 18.662109 10.578125 L 19.765625 11.699219 C 21.415252 13.373236 21.415532 16.078791 19.765625 17.753906 C 18.116073 19.427848 15.491349 19.427848 13.841797 17.753906 L 12.707031 16.601562 L 14.263672 14.835938 C 14.549672 14.510937 14.317766 14 13.884766 14 L 9.9453125 14 C 9.5113125 14 9.2794063 14.511891 9.5664062 14.837891 L 11.203125 16.693359 L 10.158203 17.753906 C 8.5086512 19.427848 5.883927 19.427848 4.234375 17.753906 C 2.5847481 16.079889 2.5844677 13.374334 4.234375 11.699219 L 6.5566406 9.34375 L 4.8769531 8.9082031 C 3.7988013 8.6291857 3 7.6710503 3 6.5 C 3 5.107438 4.107438 4 5.5 4 z M 9 10 A 1 1 0 0 0 9 12 A 1 1 0 0 0 9 10 z M 15 10 A 1 1 0 0 0 15 12 A 1 1 0 0 0 15 10 z M 12 18.734375 L 12.416016 19.15625 C 12.60123 19.344203 12.797883 19.51283 13 19.671875 L 13 21 L 11 21 L 11 19.671875 C 11.202117 19.51283 11.39877 19.344203 11.583984 19.15625 L 12 18.734375 z" fill="#e23175"/></svg>
