<svg id="Layer_1" data-name="Layer 1" xmlns="http://www.w3.org/2000/svg" viewBox="0 0 50 50"><rect width="50" height="50" rx="25" style="fill:#fff"/><rect x="27.3" y="27.3" width="22.7" height="22.7" rx="10.5" style="fill:#fff"/><path d="M27.2,38.5a11.3,11.3,0,0,1,19.93-7.29A22.78,22.78,0,0,0,48,25,23,23,0,1,0,25,48a22.47,22.47,0,0,0,6.22-.87A11.25,11.25,0,0,1,27.2,38.5Zm-4.5-4.3V27.3H15.8V22.7h6.9V15.8h4.6v6.9h6.9v4.6H27.3v6.9Z" transform="translate(0 0)" style="fill:#ed6270"/><path d="M38.5,28a10.5,10.5,0,0,0-3.67,20.33l.06,0a8.13,8.13,0,0,0,1,.31h0l.5.12h.08l.57.1.3,0h.09c.12,0,.23,0,.36,0s.47,0,.71,0H39c.21,0,.42,0,.62-.06l.3,0,.57-.1.6-.13a8.57,8.57,0,0,0,1-.31l.06,0A10.5,10.5,0,0,0,38.5,28Zm0,.91a9.59,9.59,0,0,1,6.19,16.92,5.35,5.35,0,0,0-.8-1.31,12,12,0,0,1-10.78,0,5.35,5.35,0,0,0-.8,1.31A9.59,9.59,0,0,1,38.5,28.91ZM34,32l-.32.22a3.86,3.86,0,0,0-1.15,4.44,10.62,10.62,0,0,0-1.31,5v.15l.08.13c.09.12,2.26,2.94,7.22,2.94s7.13-2.82,7.22-2.94l.08-.13v-.15a10.62,10.62,0,0,0-1.31-5,3.86,3.86,0,0,0-1.15-4.44L43,32l-1.89,1.89a8.79,8.79,0,0,0-2.63-.38,8.65,8.65,0,0,0-2.62.38Zm2.24,5.62A1.37,1.37,0,1,1,34.85,39,1.37,1.37,0,0,1,36.22,37.59Zm4.56,0A1.37,1.37,0,1,1,39.41,39,1.37,1.37,0,0,1,40.78,37.59Zm-3.42,3.65h2.28L38.5,42.38Z" transform="translate(0 0)" style="fill:#ed6270"/></svg>