<svg xmlns="http://www.w3.org/2000/svg" viewBox="0 0 47.44 47.89"><g id="Layer_1" data-name="Layer 1"><path d="M41.39,35.73a.3.3,0,0,0-.3.25l-.3,1.81a4.56,4.56,0,0,0-1,.42l-1.49-1.07a.32.32,0,0,0-.39,0L36.7,38.35a.3.3,0,0,0,0,.39l1,1.5a4.56,4.56,0,0,0-.42,1l-1.81.3a.3.3,0,0,0-.25.3v1.67a.3.3,0,0,0,.25.3l1.8.32a5.12,5.12,0,0,0,.43,1l-1.07,1.48a.3.3,0,0,0,0,.39l1.18,1.18a.3.3,0,0,0,.39,0l1.51-1a6,6,0,0,0,1,.42l.31,1.81a.3.3,0,0,0,.3.25h1.67a.31.31,0,0,0,.3-.25l.32-1.82a5.09,5.09,0,0,0,1-.42l1.52,1.06a.32.32,0,0,0,.39,0L47.79,47a.3.3,0,0,0,0-.39l-1.08-1.5a4.89,4.89,0,0,0,.41-1L49,43.83a.31.31,0,0,0,.25-.3V41.86a.31.31,0,0,0-.26-.3l-1.83-.3a5.13,5.13,0,0,0-.41-1l1.06-1.52a.29.29,0,0,0,0-.38l-1.18-1.18a.32.32,0,0,0-.4,0l-1.5,1.08a4.49,4.49,0,0,0-1-.42L43.36,36a.3.3,0,0,0-.3-.25Zm.26.61H42.8l.31,1.72a.29.29,0,0,0,.22.24,4.78,4.78,0,0,1,1.25.52.3.3,0,0,0,.33,0l1.43-1,.82.81-1,1.45a.3.3,0,0,0,0,.33,4.79,4.79,0,0,1,.52,1.23.29.29,0,0,0,.24.23l1.74.28v1.16l-1.74.3a.29.29,0,0,0-.24.23A4.46,4.46,0,0,1,46.13,45a.32.32,0,0,0,0,.34l1,1.42-.82.82-1.45-1a.29.29,0,0,0-.33,0,4.5,4.5,0,0,1-1.24.51.31.31,0,0,0-.23.25l-.3,1.72H41.64l-.28-1.72a.3.3,0,0,0-.23-.24,4.72,4.72,0,0,1-1.25-.52.31.31,0,0,0-.33,0l-1.43,1-.82-.82,1-1.41a.3.3,0,0,0,0-.34,4.46,4.46,0,0,1-.52-1.25.3.3,0,0,0-.24-.22l-1.71-.3V42.12l1.71-.29a.28.28,0,0,0,.24-.22,4.78,4.78,0,0,1,.52-1.25.29.29,0,0,0,0-.33l-1-1.43.83-.81,1.41,1a.32.32,0,0,0,.34,0,4.44,4.44,0,0,1,1.25-.51.3.3,0,0,0,.22-.25Zm.59,3.94a2.43,2.43,0,1,0,2.43,2.43A2.44,2.44,0,0,0,42.24,40.28Z" transform="translate(-2 -2)" style="fill:#fff;stroke:#fff;stroke-miterlimit:10;stroke-width:0.4000000059604645px"/><path d="M42.24,35.49a7.2,7.2,0,1,0,7.2,7.2A7.22,7.22,0,0,0,42.24,35.49Zm2.88,7.92H43v2.16H41.52V43.41H39.36V42h2.16V39.81H43V42h2.16Z" transform="translate(-2 -2)" style="fill:#ed6270"/></g><g id="Layer_2" data-name="Layer 2"><path d="M40.81,32.56l.19-.28v-.34a23.33,23.33,0,0,0-2.88-11,8.4,8.4,0,0,0-2.53-9.72l-.68-.5-4.16,4.15A18.65,18.65,0,0,0,25,14a18.65,18.65,0,0,0-5.75.84l-4.16-4.15-.68.5a8.4,8.4,0,0,0-2.53,9.72A23.33,23.33,0,0,0,9,31.94v.34l.19.28C9.38,32.82,14.13,39,25,39a23.49,23.49,0,0,0,9.71-2,8.51,8.51,0,0,1,5-3.26A10.78,10.78,0,0,0,40.81,32.56ZM20,29a3,3,0,1,1,3-3A3,3,0,0,1,20,29Zm5,4.5L22.5,31h5ZM30,29a3,3,0,1,1,3-3A3,3,0,0,1,30,29Z" transform="translate(-2 -2)" style="fill:#ed6270"/><path d="M33.07,42a8.58,8.58,0,0,1,.35-2.39A25.64,25.64,0,0,1,25,41a24.73,24.73,0,0,1-11.81-2.81,11.24,11.24,0,0,0-1.75,2.87A21,21,0,1,1,44,33.94a9.06,9.06,0,0,1,1.8.8A23,23,0,1,0,17,46.53l.12.06c.71.26,1.43.5,2.16.69h0c.36.09.73.18,1.1.25l.18,0c.42.08.83.16,1.25.22l.66.06.19,0,.78.06c.51,0,1,.06,1.56.06s.8,0,1.19,0,.9-.08,1.34-.13l.66-.06c.42-.06.83-.14,1.25-.22s.88-.17,1.31-.28c.73-.19,1.45-.43,2.16-.69l.12-.06c.36-.13.72-.29,1.07-.45A8.36,8.36,0,0,1,33.07,42Z" transform="translate(-2 -2)" style="fill:#ed6270"/></g></svg>