<svg id="Layer_1" data-name="Layer 1" xmlns="http://www.w3.org/2000/svg" viewBox="0 0 46.97 47.1"><circle cx="23" cy="23" r="22.5" style="fill:#fff"/><path d="M25,2A23,23,0,1,0,48,25,23,23,0,0,0,25,2Zm0,2A21,21,0,0,1,38.56,41a10.85,10.85,0,0,0-3.25-4.28A18.2,18.2,0,0,0,37,35.84a15,15,0,0,0,3.84-3.28l.19-.28v-.34a21.84,21.84,0,0,0-2.94-11,8.4,8.4,0,0,0-.25-7,9,9,0,0,0-2.22-2.75l-.68-.5-.63.59-3.56,3.56A15.17,15.17,0,0,0,25,13.91a15.17,15.17,0,0,0-5.72.93l-3.56-3.56-.63-.59-.68.5a9,9,0,0,0-2.22,2.75,8.4,8.4,0,0,0-.25,7A21.84,21.84,0,0,0,9,31.94v.34l.19.28A15,15,0,0,0,13,35.84a17.54,17.54,0,0,0,1.63.91A10.76,10.76,0,0,0,11.44,41,21,21,0,0,1,25,4Zm-9.94,9.5,3.22,3.22.53.5.63-.31a13.35,13.35,0,0,1,5.56-1,13.35,13.35,0,0,1,5.56,1l.63.31.53-.5,3.22-3.22A3.71,3.71,0,0,1,36,14.84a6.26,6.26,0,0,1,.06,5.75l-.21.5.28.44A21.46,21.46,0,0,1,39,31.59a11.69,11.69,0,0,1-3.06,2.53A20.3,20.3,0,0,1,25,37a20.3,20.3,0,0,1-10.91-2.88A11.69,11.69,0,0,1,11,31.59a21.46,21.46,0,0,1,2.81-10.06l.28-.44-.21-.5A6.26,6.26,0,0,1,14,14.84,3.71,3.71,0,0,1,15.06,13.5ZM20,22a4,4,0,1,0,4,4A4,4,0,0,0,20,22Zm10,0a4,4,0,1,0,4,4A4,4,0,0,0,30,22ZM20,24a2,2,0,1,1-2,2A2,2,0,0,1,20,24Zm10,0a2,2,0,1,1-2,2A2,2,0,0,1,30,24Zm-7.5,7L25,33.5,27.5,31Zm-5.59,6.66A24.26,24.26,0,0,0,25,39a24.4,24.4,0,0,0,8.12-1.34,8.6,8.6,0,0,1,3.79,4.65,21.07,21.07,0,0,1-23.82,0A8.58,8.58,0,0,1,16.91,37.66Z" transform="translate(-2 -2)" style="fill:#e23175"/><circle cx="36.97" cy="37.1" r="6.39" style="fill:#fff"/><path d="M39,29.1a10,10,0,1,0,10,10A10,10,0,0,0,39,29.1Zm4,11H40v3H38v-3H35v-2h3v-3h2v3h3Z" transform="translate(-2 -2)" style="fill:#e23175"/></svg>