<?xml version="1.0" encoding="utf-8"?>
<svg xmlns="http://www.w3.org/2000/svg" viewBox="0 0 80 80" fill="#e23175"><path d="M 49.082031 9 C 45.661164 8.99186 41.985801 11.320326 39.423828 15.105469 C 37.631798 17.752666 36.718854 20.651113 36.726562 23.257812 C 36.734262 25.74313 37.617023 28.030566 39.503906 29.345703 C 40.573234 30.092055 41.840551 30.429096 43.134766 30.408203 C 46.519933 30.357163 50.135805 28.041294 52.666016 24.302734 C 54.451649 21.664072 55.365484 18.775748 55.363281 16.175781 C 55.361081 13.68333 54.480078 11.384081 52.587891 10.064453 C 51.551993 9.3399304 50.329331 9.0034841 49.082031 9 z M 49.076172 11 C 49.976872 11.0025 50.767304 11.231648 51.441406 11.703125 C 52.679615 12.565759 53.361484 14.143206 53.363281 16.177734 C 53.365081 18.299767 52.590133 20.846303 51.009766 23.181641 C 48.769977 26.491081 45.554348 28.371247 43.103516 28.408203 C 42.16773 28.423313 41.347109 28.192726 40.648438 27.705078 C 39.41332 26.844215 38.732851 25.278636 38.726562 23.251953 C 38.720262 21.124653 39.492156 18.569365 41.078125 16.226562 L 41.080078 16.226562 C 43.348099 12.875706 46.613039 10.994139 49.076172 11 z M 50.046875 12.230469 L 49.246094 12.632812 L 49.087891 13.513672 L 49.699219 14.167969 L 50.046875 14.230469 L 50.847656 13.830078 L 51.005859 12.947266 L 50.394531 12.292969 L 50.046875 12.230469 z M 27.107422 13.158203 C 23.493234 13.165603 20.321776 16.683337 19.148438 21.357422 C 18.841928 22.573815 18.700761 23.779127 18.705078 24.929688 C 18.712678 26.840626 19.121185 28.608525 19.912109 30.042969 C 20.703034 31.477413 21.913083 32.592898 23.453125 33.007812 C 23.896106 33.127604 24.345946 33.184124 24.792969 33.181641 C 28.402701 33.166751 31.566029 29.651971 32.738281 24.984375 L 32.738281 24.982422 C 33.039176 23.783127 33.181641 22.596587 33.181641 21.460938 L 33.181641 21.458984 C 33.181141 19.53719 32.775448 17.757536 31.984375 16.314453 C 31.193302 14.87137 29.977727 13.748764 28.431641 13.332031 C 27.994465 13.214953 27.549645 13.158203 27.109375 13.158203 L 27.107422 13.158203 z M 27.109375 15.158203 C 27.380457 15.158203 27.647903 15.193093 27.912109 15.263672 L 27.914062 15.263672 C 28.849256 15.516292 29.63814 16.194858 30.230469 17.275391 C 30.823146 18.356558 31.181181 19.824824 31.181641 21.460938 C 31.181641 22.429286 31.059934 23.455388 30.798828 24.496094 C 29.78108 28.548497 26.991471 31.172531 24.783203 31.181641 C 24.510226 31.183141 24.241629 31.150331 23.974609 31.078125 C 23.042652 30.827039 22.256138 30.151931 21.664062 29.078125 C 21.071987 28.004319 20.711514 26.547935 20.705078 24.921875 C 20.701378 23.940435 20.8224 22.89931 21.087891 21.845703 L 21.087891 21.84375 C 22.106285 17.786899 24.897838 15.164131 27.109375 15.158203 z M 50.238281 16.203125 L 49.4375 16.605469 L 49.279297 17.486328 L 49.892578 18.140625 L 50.238281 18.203125 L 51.039062 17.800781 L 51.197266 16.919922 L 50.585938 16.265625 L 50.238281 16.203125 z M 28 17 L 27.199219 17.402344 L 27.041016 18.283203 L 27.652344 18.9375 L 28 19 L 28.800781 18.597656 L 28.958984 17.716797 L 28.347656 17.0625 L 28 17 z M 49.007812 19.984375 L 48.207031 20.386719 L 48.048828 21.267578 L 48.660156 21.921875 L 49.007812 21.984375 L 49.808594 21.583984 L 49.966797 20.701172 L 49.355469 20.046875 L 49.007812 19.984375 z M 28.441406 20.947266 L 27.640625 21.349609 L 27.482422 22.230469 L 28.09375 22.884766 L 28.441406 22.947266 L 29.242188 22.546875 L 29.400391 21.664062 L 28.787109 21.009766 L 28.441406 20.947266 z M 46.466797 23.044922 L 45.666016 23.447266 L 45.507812 24.328125 L 46.119141 24.982422 L 46.466797 25.044922 L 47.267578 24.644531 L 47.425781 23.761719 L 46.8125 23.107422 L 46.466797 23.044922 z M 27.199219 24.716797 L 26.398438 25.117188 L 26.240234 26 L 26.853516 26.654297 L 27.199219 26.716797 L 28.001953 26.314453 L 28.158203 25.433594 L 27.546875 24.779297 L 27.199219 24.716797 z M 43 25 L 42.199219 25.402344 L 42.041016 26.283203 L 42.652344 26.9375 L 43 27 L 43.800781 26.597656 L 43.958984 25.716797 L 43.347656 25.0625 L 43 25 z M 64.824219 25.636719 C 62.224252 25.634519 59.335928 26.548351 56.697266 28.333984 C 52.958706 30.864195 50.642841 34.480067 50.591797 37.865234 C 50.570907 39.159439 50.908534 40.426402 51.654297 41.496094 C 52.969434 43.382977 55.256869 44.265726 57.742188 44.273438 C 60.348886 44.281137 63.247334 43.368202 65.894531 41.576172 C 69.679674 39.014199 72.008139 35.338836 72 31.917969 C 71.9965 30.668583 71.657297 29.451025 70.9375 28.416016 L 70.9375 28.414062 C 69.618134 26.520271 67.317691 25.638921 64.824219 25.636719 z M 64.822266 27.636719 C 66.856794 27.638519 68.434241 28.320385 69.296875 29.558594 C 69.768352 30.237233 69.997489 31.023897 70 31.923828 C 70.0059 34.386961 68.124294 37.651895 64.773438 39.919922 L 64.773438 39.921875 C 62.430634 41.507844 59.875347 42.279729 57.748047 42.273438 C 55.721364 42.267137 54.155785 41.58668 53.294922 40.351562 C 52.806684 39.651255 52.57669 38.832279 52.591797 37.896484 C 52.628757 35.445652 54.508919 32.230023 57.818359 29.990234 C 60.153697 28.409867 62.700233 27.634921 64.822266 27.636719 z M 24.521484 27.642578 L 23.720703 28.044922 L 23.5625 28.925781 L 24.173828 29.580078 L 24.521484 29.642578 L 25.322266 29.242188 L 25.480469 28.359375 L 24.867188 27.705078 L 24.521484 27.642578 z M 67.96875 30.095703 L 67.167969 30.496094 L 67.009766 31.378906 L 67.621094 32.033203 L 67.96875 32.095703 L 68.769531 31.693359 L 68.927734 30.8125 L 68.314453 30.158203 L 67.96875 30.095703 z M 66.216797 33.671875 L 65.416016 34.074219 L 65.257812 34.955078 L 65.871094 35.609375 L 66.216797 35.671875 L 67.019531 35.271484 L 67.175781 34.388672 L 66.564453 33.734375 L 66.216797 33.671875 z M 63.458984 36.542969 L 62.658203 36.945312 L 62.5 37.826172 L 63.113281 38.480469 L 63.458984 38.542969 L 64.261719 38.142578 L 64.417969 37.259766 L 63.806641 36.605469 L 63.458984 36.542969 z M 31.490234 36.728516 C 24.779241 36.728516 20.132071 38.000203 16.955078 39.519531 C 13.778086 41.03886 12.058392 42.834081 11.283203 43.666016 L 11.28125 43.666016 C 9.7463815 45.315123 8.9974369 47.422651 9.0019531 49.513672 C 9.0064731 51.721697 9.8531495 53.937439 11.533203 55.615234 C 13.39527 57.475179 15.156634 58.138114 16.613281 58.617188 C 18.070266 59.096371 19.162922 59.395343 20.384766 60.617188 C 21.606609 61.83903 21.905581 62.931687 22.384766 64.388672 C 22.86395 65.845657 23.525786 67.608157 25.386719 69.470703 C 27.066322 71.151434 29.277639 71.998566 31.488281 72.001953 C 33.570173 72.005353 35.673581 71.259185 37.320312 69.732422 C 39.215181 67.97438 44.273438 61.577796 44.273438 49.511719 L 44.273438 49.509766 C 44.272447 48.935862 44.234963 48.353068 44.15625 47.763672 C 43.406413 42.133907 38.866974 37.595542 33.238281 36.845703 C 32.64866 36.766726 32.06426 36.728516 31.490234 36.728516 z M 59.9375 38.396484 L 59.136719 38.796875 L 58.978516 39.679688 L 59.589844 40.333984 L 59.9375 40.396484 L 60.738281 39.994141 L 60.896484 39.111328 L 60.283203 38.457031 L 59.9375 38.396484 z M 31.490234 38.728516 C 31.976209 38.728516 32.472278 38.759142 32.972656 38.826172 L 32.972656 38.828125 L 32.974609 38.828125 C 37.689917 39.456286 41.545665 43.311108 42.173828 48.027344 C 42.240938 48.529275 42.272517 49.024262 42.273438 49.513672 C 42.272813 61.014158 37.360028 66.967702 35.958984 68.267578 C 34.695914 69.438018 33.097758 70.004565 31.492188 70.001953 C 29.786829 69.999353 28.099178 69.35591 26.800781 68.056641 C 25.201714 66.456187 24.749222 65.174687 24.285156 63.763672 C 23.821091 62.352657 23.347984 60.752281 21.798828 59.203125 C 20.249672 57.653969 18.649296 57.180862 17.238281 56.716797 C 15.827266 56.252731 14.545766 55.800239 12.945312 54.201172 C 11.649366 52.906967 11.005435 51.211741 11.001953 49.509766 C 10.998453 47.896786 11.566962 46.29619 12.746094 45.029297 C 13.500905 44.219232 14.932352 42.70439 17.818359 41.324219 C 20.704367 39.944047 25.031228 38.728516 31.490234 38.728516 z M 56 39 L 55.199219 39.402344 L 55.041016 40.283203 L 55.652344 40.9375 L 56 41 L 56.800781 40.597656 L 56.958984 39.716797 L 56.347656 39.0625 L 56 39 z M 38 44 L 37.199219 44.402344 L 37.041016 45.283203 L 37.652344 45.9375 L 38 46 L 38.800781 45.597656 L 38.958984 44.716797 L 38.347656 44.0625 L 38 44 z M 59.539062 47.818359 C 58.403413 47.818359 57.216873 47.960824 56.017578 48.261719 L 56.015625 48.261719 C 51.348029 49.433971 47.83325 52.597299 47.818359 56.207031 C 47.815859 56.654054 47.872398 57.103894 47.992188 57.546875 C 48.407102 59.086917 49.522587 60.296966 50.957031 61.087891 C 52.391475 61.878815 54.159373 62.287358 56.070312 62.294922 C 57.220872 62.299222 58.426185 62.158073 59.642578 61.851562 C 64.315834 60.678432 67.83311 57.507921 67.841797 53.894531 L 67.841797 53.892578 C 67.842897 53.449204 67.784417 53.003193 67.667969 52.568359 C 67.251324 51.02232 66.12863 49.806698 64.685547 49.015625 C 63.242464 48.224552 61.462903 47.8189 59.541016 47.818359 L 59.539062 47.818359 z M 38.818359 47.912109 L 38.017578 48.314453 L 37.859375 49.195312 L 38.470703 49.849609 L 38.818359 49.912109 L 39.619141 49.511719 L 39.777344 48.628906 L 39.164062 47.974609 L 38.818359 47.912109 z M 59.539062 49.818359 C 61.175176 49.818819 62.643442 50.176854 63.724609 50.769531 C 64.805777 51.362208 65.484061 52.151977 65.736328 53.087891 C 65.807358 53.353792 65.842548 53.621327 65.841797 53.888672 C 65.837197 56.100484 63.214166 58.893448 59.15625 59.912109 L 59.154297 59.912109 C 58.10069 60.1776 57.059565 60.298605 56.078125 60.294922 C 54.452065 60.288522 52.995681 59.928013 51.921875 59.335938 C 50.848069 58.743862 50.172961 57.957348 49.921875 57.025391 C 49.849665 56.758371 49.816843 56.489774 49.818359 56.216797 C 49.827459 54.008529 52.451503 51.21892 56.503906 50.201172 C 57.544612 49.940066 58.570713 49.818359 59.539062 49.818359 z M 39.033203 51.902344 L 38.232422 52.302734 L 38.074219 53.185547 L 38.685547 53.839844 L 39.033203 53.902344 L 39.833984 53.5 L 39.992188 52.619141 L 39.380859 51.964844 L 39.033203 51.902344 z M 62.708984 54.330078 L 61.908203 54.732422 L 61.75 55.613281 L 62.361328 56.267578 L 62.708984 56.330078 L 63.509766 55.929688 L 63.667969 55.046875 L 63.054688 54.392578 L 62.708984 54.330078 z M 52 55 L 51.199219 55.402344 L 51.041016 56.283203 L 51.652344 56.9375 L 52 57 L 52.800781 56.597656 L 52.958984 55.716797 L 52.347656 55.0625 L 52 55 z M 38.714844 55.886719 L 37.914062 56.287109 L 37.755859 57.169922 L 38.369141 57.824219 L 38.714844 57.886719 L 39.517578 57.484375 L 39.673828 56.603516 L 39.0625 55.949219 L 38.714844 55.886719 z M 59.447266 56.574219 L 58.644531 56.976562 L 58.488281 57.859375 L 59.099609 58.513672 L 59.447266 58.574219 L 60.248047 58.173828 L 60.40625 57.291016 L 59.792969 56.636719 L 59.447266 56.574219 z M 55.509766 56.818359 L 54.708984 57.220703 L 54.550781 58.103516 L 55.162109 58.757812 L 55.509766 58.818359 L 56.310547 58.417969 L 56.46875 57.535156 L 55.857422 56.880859 L 55.509766 56.818359 z M 37.744141 59.757812 L 36.941406 60.160156 L 36.785156 61.041016 L 37.396484 61.695312 L 37.744141 61.757812 L 38.544922 61.355469 L 38.703125 60.474609 L 38.089844 59.820312 L 37.744141 59.757812 z M 35.736328 63.197266 L 34.935547 63.597656 L 34.777344 64.480469 L 35.390625 65.134766 L 35.736328 65.197266 L 36.537109 64.794922 L 36.695312 63.914062 L 36.083984 63.259766 L 35.736328 63.197266 z M 28.960938 65.056641 L 28.160156 65.457031 L 28.001953 66.339844 L 28.615234 66.994141 L 28.960938 67.056641 L 29.763672 66.654297 L 29.919922 65.771484 L 29.308594 65.117188 L 28.960938 65.056641 z M 32.677734 65.722656 L 31.876953 66.125 L 31.71875 67.005859 L 32.330078 67.660156 L 32.677734 67.722656 L 33.478516 67.322266 L 33.636719 66.439453 L 33.025391 65.785156 L 32.677734 65.722656 z" fill="#e23175"/></svg>
