<?xml version="1.0" encoding="utf-8"?>
<svg xmlns="http://www.w3.org/2000/svg" viewBox="0 0 80 80" fill="#e23175"><path d="M 17.210938 9.007813 C 16.335938 9.011719 15.476563 9.4375 14.960938 10.210938 C 11.339844 15.644531 10.210938 21.210938 11.53125 25.753906 C 12.660156 29.648438 15.203125 32.253906 17.402344 33.992188 C 16.582031 35.546875 16 37.460938 16 40 C 16 47.929688 11.199219 54.402344 11.199219 54.402344 C 11.070313 54.574219 11 54.785156 11 55 L 11 66 C 11 68.75 13.25 71 16 71 L 22 71 C 22.269531 71 22.527344 70.890625 22.71875 70.695313 C 22.90625 70.503906 23.007813 70.242188 23 69.96875 C 23.839844 70.605469 24.871094 71 26 71 L 32 71 C 32.300781 71 32.582031 70.867188 32.773438 70.632813 C 32.960938 70.402344 33.039063 70.097656 32.980469 69.804688 C 32.980469 69.804688 32.78125 68.773438 32.070313 67.75 C 31.5 66.933594 30.398438 66.222656 29 65.914063 L 29 59.546875 C 29.394531 59.328125 30.632813 58.65625 32.5625 57.296875 C 34.386719 56.007813 36.457031 54.359375 37.984375 52.5 C 39.898438 53.1875 42.183594 53.757813 45 53.890625 L 45 65.988281 C 45 68.746094 47.257813 70.996094 50.011719 70.988281 L 55 70.980469 C 55.003906 70.980469 55.007813 70.980469 55.011719 70.980469 L 55.011719 70.988281 L 60 70.980469 C 60.554688 70.976563 61 70.53125 61 69.980469 C 61 69.980469 61.011719 69.023438 60.515625 68.039063 C 60.132813 67.273438 59.203125 66.609375 58 66.285156 L 58.015625 47.558594 C 59.136719 46.09375 60 44.246094 60 42.011719 L 60 32.003906 C 60 31.171875 60.042969 30.304688 60.28125 29.808594 C 60.515625 29.3125 60.761719 29.003906 62.007813 29.003906 C 67.269531 29.003906 70.191406 26.785156 71.597656 24.53125 C 73.007813 22.277344 73 20 73 20 C 73 19.539063 72.6875 19.140625 72.238281 19.03125 C 72.238281 19.03125 70.652344 18.632813 68.863281 17.84375 C 67.078125 17.058594 65.191406 15.824219 64.566406 14.578125 C 63.3125 12.0625 61.738281 10.621094 60.21875 9.859375 C 58.695313 9.101563 57.261719 9.023438 56.34375 9.023438 L 53.679688 9.023438 C 50.507813 9.023438 48.371094 11.300781 47.484375 13.660156 C 47.074219 14.738281 43.859375 23.445313 42.753906 26.324219 C 42.320313 27.449219 41.425781 28.089844 40.300781 28.496094 C 39.175781 28.902344 37.863281 29.015625 36.953125 29.015625 L 25.367188 29.015625 C 24.988281 29.015625 24.402344 29.101563 23.785156 29.21875 C 22.554688 28.925781 20.992188 28.441406 19.652344 27.640625 C 18.273438 26.816406 17.175781 25.722656 16.742188 24.21875 C 15.84375 21.09375 16.675781 17.4375 19.484375 13.230469 C 19.484375 13.226563 19.484375 13.226563 19.484375 13.226563 C 20.308594 11.988281 19.96875 10.285156 18.730469 9.460938 C 18.265625 9.148438 17.734375 9 17.210938 9.007813 Z M 17.078125 11.003906 C 17.257813 10.96875 17.449219 11.007813 17.621094 11.121094 C 17.960938 11.351563 18.046875 11.777344 17.816406 12.121094 C 14.8125 16.625 13.714844 20.929688 14.820313 24.769531 C 15.429688 26.894531 16.96875 28.367188 18.625 29.359375 C 20.277344 30.347656 22.078125 30.894531 23.453125 31.210938 C 23.601563 31.246094 23.757813 31.246094 23.90625 31.210938 C 24.554688 31.058594 25.113281 31.015625 25.367188 31.015625 L 36.953125 31.015625 C 38.011719 31.015625 39.511719 30.90625 40.984375 30.375 C 41.324219 30.25 41.667969 30.097656 42.003906 29.914063 C 42 29.941406 42 29.972656 42 30 C 42 30.550781 42.449219 31 43 31 C 43.550781 31 44 30.550781 44 30 C 44 29.542969 43.6875 29.144531 43.246094 29.03125 C 43.816406 28.507813 44.308594 27.855469 44.621094 27.039063 C 45.746094 24.113281 48.972656 15.375 49.355469 14.363281 C 50.035156 12.558594 51.449219 11.027344 53.679688 11.027344 L 56.34375 11.027344 C 57.148438 11.027344 58.199219 11.089844 59.324219 11.652344 C 60.449219 12.210938 61.679688 13.273438 62.78125 15.46875 C 63.820313 17.554688 66.09375 18.808594 68.058594 19.675781 C 68.457031 19.851563 68.800781 19.992188 69.109375 20.109375 C 68.882813 20.703125 69.007813 21.402344 69.488281 21.882813 L 70.316406 22.703125 C 70.203125 22.949219 70.070313 23.203125 69.902344 23.472656 C 68.8125 25.21875 66.738281 27.003906 62.007813 27.003906 C 61.199219 27.003906 60.503906 27.191406 59.929688 27.492188 C 59.976563 27 60 26.503906 60 26 C 60 20.226563 56.839844 15.453125 56.839844 15.453125 C 56.65625 15.164063 56.339844 14.988281 56 14.988281 C 55.628906 14.984375 55.285156 15.1875 55.109375 15.515625 C 54.933594 15.84375 54.953125 16.238281 55.160156 16.546875 C 55.160156 16.546875 58 20.964844 58 26 C 58 27.722656 57.679688 29.308594 57.042969 30.359375 C 56.40625 31.410156 55.566406 32 54 32 C 52.738281 32 51.851563 31.339844 51.132813 30.078125 C 50.414063 28.8125 50 26.960938 50 25.011719 C 50 22.023438 51.246094 19.460938 51.246094 19.460938 C 51.492188 18.964844 51.289063 18.367188 50.792969 18.121094 C 50.296875 17.875 49.699219 18.078125 49.453125 18.574219 C 49.453125 18.574219 48 21.472656 48 25.011719 C 48 27.234375 48.433594 29.375 49.390625 31.0625 C 50.351563 32.75 51.964844 34 54 34 C 55.667969 34 57.035156 33.355469 58 32.359375 L 58 36 C 57.449219 36 57 36.449219 57 37 C 57 37.550781 57.449219 38 58 38 L 58 42.011719 C 58 44.59375 56.511719 46.5625 54.90625 47.953125 C 53.300781 49.347656 51.65625 50.070313 51.613281 50.089844 C 51.25 50.25 51.015625 50.609375 51.015625 51.003906 L 51 67 C 51 67.550781 51.449219 68 52 68 C 53.167969 68 53.476563 68.433594 53.734375 68.9375 C 53.742188 68.960938 53.734375 68.960938 53.746094 68.984375 L 50.003906 68.988281 C 48.335938 68.992188 47 67.660156 47 65.988281 L 47 53.011719 C 47 52.460938 46.550781 52.011719 46 52.011719 C 42.167969 52.011719 39.605469 51.074219 37.265625 50.082031 C 34.921875 49.09375 32.765625 48 30 48 C 29.621094 48 29.273438 48.214844 29.105469 48.550781 C 29.105469 48.550781 28.441406 49.902344 26.644531 51.816406 C 24.847656 53.730469 21.960938 56.144531 17.59375 58.085938 C 17.234375 58.246094 17 58.605469 17 59 L 17 66.648438 C 17 67.199219 17.449219 67.648438 18 67.648438 C 19.328125 67.648438 19.972656 68.238281 20.425781 68.894531 C 20.464844 68.949219 20.445313 68.945313 20.476563 69 L 16 69 C 14.332031 69 13 67.667969 13 66 L 13 55.25 C 13.371094 54.75 18 48.394531 18 40 C 18 37.371094 18.597656 35.566406 19.421875 34.285156 C 19.707031 33.84375 19.601563 33.257813 19.175781 32.941406 C 17.085938 31.398438 14.507813 28.84375 13.453125 25.199219 C 12.34375 21.371094 13.246094 16.386719 16.625 11.320313 C 16.738281 11.148438 16.902344 11.042969 17.078125 11.003906 Z M 62.003906 17 C 61.75 17 61.496094 17.097656 61.300781 17.292969 C 60.914063 17.679688 61.011719 18.988281 61.011719 18.988281 C 61.011719 18.988281 62.316406 19.085938 62.707031 18.699219 C 63.097656 18.308594 63.097656 17.683594 62.707031 17.292969 C 62.511719 17.097656 62.261719 17 62.003906 17 Z M 45 32 C 44.449219 32 44 32.449219 44 33 C 44 33.550781 44.449219 34 45 34 C 45.550781 34 46 33.550781 46 33 C 46 32.449219 45.550781 32 45 32 Z M 48 34 C 47.449219 34 47 34.449219 47 35 C 47 35.550781 47.449219 36 48 36 C 48.550781 36 49 35.550781 49 35 C 49 34.449219 48.550781 34 48 34 Z M 51 36 C 50.449219 36 50 36.449219 50 37 C 50 37.550781 50.449219 38 51 38 C 51.550781 38 52 37.550781 52 37 C 52 36.449219 51.550781 36 51 36 Z M 55 37 C 54.449219 37 54 37.449219 54 38 C 54 38.550781 54.449219 39 55 39 C 55.550781 39 56 38.550781 56 38 C 56 37.449219 55.550781 37 55 37 Z M 32 41 C 31.449219 41 31 41.449219 31 42 C 31 42.550781 31.449219 43 32 43 C 32.550781 43 33 42.550781 33 42 C 33 41.449219 32.550781 41 32 41 Z M 31 45 C 30.449219 45 30 45.449219 30 46 C 30 46.550781 30.449219 47 31 47 C 31.550781 47 32 46.550781 32 46 C 32 45.449219 31.550781 45 31 45 Z M 46 45 C 45.449219 45 45 45.449219 45 46 C 45 46.550781 45.449219 47 46 47 C 46.550781 47 47 46.550781 47 46 C 47 45.449219 46.550781 45 46 45 Z M 46 49 C 45.449219 49 45 49.449219 45 50 C 45 50.550781 45.449219 51 46 51 C 46.550781 51 47 50.550781 47 50 C 47 49.449219 46.550781 49 46 49 Z M 56.011719 49.628906 L 56 67 C 56 67.550781 56.449219 68 57 68 C 58.167969 68 58.476563 68.433594 58.734375 68.9375 C 58.742188 68.960938 58.734375 68.960938 58.746094 68.984375 L 55.855469 68.988281 C 55.785156 68.695313 55.6875 68.375 55.515625 68.039063 C 55.132813 67.273438 54.203125 66.609375 53 66.285156 L 53.015625 51.613281 C 53.621094 51.316406 54.703125 50.726563 56.011719 49.628906 Z M 30.421875 50.078125 C 32.3125 50.179688 33.988281 50.875 36.011719 51.730469 C 34.707031 53.160156 32.972656 54.558594 31.40625 55.660156 C 29.292969 57.152344 27.519531 58.125 27.519531 58.125 C 27.199219 58.296875 27 58.632813 27 59 L 27 66.648438 C 27 67.199219 27.449219 67.648438 28 67.648438 C 29.328125 67.648438 29.972656 68.238281 30.425781 68.894531 C 30.464844 68.949219 30.445313 68.945313 30.476563 69 L 26 69 C 24.332031 69 23 67.667969 23 66 L 23 57.355469 C 25.203125 55.9375 26.898438 54.46875 28.105469 53.183594 C 29.730469 51.449219 30.183594 50.511719 30.421875 50.078125 Z M 21 58.546875 L 21 66 C 21 66.277344 21.027344 66.546875 21.074219 66.8125 C 20.507813 66.417969 19.8125 66.09375 19 65.914063 L 19 59.574219 C 19.707031 59.242188 20.363281 58.894531 21 58.546875 Z" fill="#e23175"/></svg>
