<svg id="Layer_1" data-name="Layer 1" xmlns="http://www.w3.org/2000/svg" viewBox="0 0 47.44 47.89"><path d="M41.39,35.73a.3.3,0,0,0-.3.25l-.3,1.81a4.56,4.56,0,0,0-1,.42l-1.49-1.07a.32.32,0,0,0-.39,0L36.7,38.35a.3.3,0,0,0,0,.39l1,1.5a4.56,4.56,0,0,0-.42,1l-1.81.3a.3.3,0,0,0-.25.3v1.67a.3.3,0,0,0,.25.3l1.8.32a5.12,5.12,0,0,0,.43,1l-1.07,1.48a.3.3,0,0,0,0,.39l1.18,1.18a.3.3,0,0,0,.39,0l1.51-1a6,6,0,0,0,1,.42l.31,1.81a.3.3,0,0,0,.3.25h1.67a.31.31,0,0,0,.3-.25l.32-1.82a5.09,5.09,0,0,0,1-.42l1.52,1.06a.32.32,0,0,0,.39,0L47.79,47a.3.3,0,0,0,0-.39l-1.08-1.5a4.89,4.89,0,0,0,.41-1L49,43.83a.31.31,0,0,0,.25-.3V41.86a.31.31,0,0,0-.26-.3l-1.83-.3a5.13,5.13,0,0,0-.41-1l1.06-1.52a.29.29,0,0,0,0-.38l-1.18-1.18a.32.32,0,0,0-.4,0l-1.5,1.08a4.49,4.49,0,0,0-1-.42L43.36,36a.3.3,0,0,0-.3-.25Zm.26.61H42.8l.31,1.72a.29.29,0,0,0,.22.24,4.78,4.78,0,0,1,1.25.52.3.3,0,0,0,.33,0l1.43-1,.82.81-1,1.45a.3.3,0,0,0,0,.33,4.79,4.79,0,0,1,.52,1.23.29.29,0,0,0,.24.23l1.74.28v1.16l-1.74.3a.29.29,0,0,0-.24.23A4.46,4.46,0,0,1,46.13,45a.32.32,0,0,0,0,.34l1,1.42-.82.82-1.45-1a.29.29,0,0,0-.33,0,4.5,4.5,0,0,1-1.24.51.31.31,0,0,0-.23.25l-.3,1.72H41.64l-.28-1.72a.3.3,0,0,0-.23-.24,4.72,4.72,0,0,1-1.25-.52.31.31,0,0,0-.33,0l-1.43,1-.82-.82,1-1.41a.3.3,0,0,0,0-.34,4.46,4.46,0,0,1-.52-1.25.3.3,0,0,0-.24-.22l-1.71-.3V42.12l1.71-.29a.28.28,0,0,0,.24-.22,4.78,4.78,0,0,1,.52-1.25.29.29,0,0,0,0-.33l-1-1.43.83-.81,1.41,1a.32.32,0,0,0,.34,0,4.44,4.44,0,0,1,1.25-.51.3.3,0,0,0,.22-.25Zm.59,3.94a2.43,2.43,0,1,0,2.43,2.43A2.44,2.44,0,0,0,42.24,40.28Z" transform="translate(-2 -2)" style="fill:#fff;stroke:#fff;stroke-miterlimit:10;stroke-width:0.4000000059604645px"/><path d="M33.07,42a8.44,8.44,0,0,1,1.11-4.18l-.14,0c-2-.67-4.43-1.69-5-2.82,2.42-.31,8-1.34,8-3.61a1,1,0,0,0-.33-.74c-.69-.63-.65-3.88-.62-6.5.07-5,.14-10.59-2.77-13.43A6.21,6.21,0,0,0,28.81,9,6.67,6.67,0,0,0,25,8h0C14.59,8.77,14.34,18.5,14.18,24.94c-.07,2.42-.14,5.17-.84,5.79a1,1,0,0,0-.34.75c0,2.17,4,3,8,3.52-.56,1.17-4,2.33-6,3-1.77.58-3.45.71-5,1.72A21,21,0,1,1,44,33.93l.32.11a9.27,9.27,0,0,1,1.59.53A22.68,22.68,0,0,0,48,25,23,23,0,1,0,23.26,47.93h.07c.55,0,1.11.07,1.67.07s1.12,0,1.67-.07h.07A22.63,22.63,0,0,0,34,46.14a8.74,8.74,0,0,1-.37-1.09A8.6,8.6,0,0,1,33.07,42Z" transform="translate(-2 -2)" style="fill:#fff"/></svg>