<svg id="Layer_1" data-name="Layer 1" xmlns="http://www.w3.org/2000/svg" viewBox="0 0 46.82 46.86"><path d="M38.5,28a10.5,10.5,0,0,0-3.67,20.33h.06a8.88,8.88,0,0,0,1,.31h0l.5.12h.08l.57.1h2a2.14,2.14,0,0,0,.62-.06H40l.57-.1.6-.13a8.88,8.88,0,0,0,1-.31h.06A10.5,10.5,0,0,0,38.5,28Zm0,.91a9.59,9.59,0,0,1,6.19,16.92,5.35,5.35,0,0,0-.8-1.31,12,12,0,0,1-10.78,0,5.35,5.35,0,0,0-.8,1.31A9.59,9.59,0,0,1,38.5,28.91ZM34,32l-.32.22a3.86,3.86,0,0,0-1.15,4.44,10.65,10.65,0,0,0-1.31,5v.15l.08.13c.09.12,2.26,2.94,7.22,2.94s7.13-2.82,7.22-2.94l.08-.13v-.15a10.65,10.65,0,0,0-1.31-5,3.86,3.86,0,0,0-1.15-4.44L43,32l-1.89,1.89a9.2,9.2,0,0,0-5.25,0Zm2.24,5.62a1,1,0,1,1-.06,0h.06Zm4.56,0a1,1,0,1,1-.06,0h.06Zm-3.42,3.65h2.28L38.5,42.38Z" transform="translate(-2 -2)" style="fill:#fff"/><path d="M31.19,2.85A23,23,0,1,0,25,48a22.57,22.57,0,0,0,6.22-.87,11.29,11.29,0,1,1,14.63-17.2,11.05,11.05,0,0,1,1.28,1.28A23,23,0,0,0,31.19,2.85ZM17,40.86H10v-7l19.39-19.4,7,7Zm22-22-7-7L36.23,7.6l7,7Z" transform="translate(-2 -2)" style="fill:#fff"/></svg>