<?xml version="1.0" encoding="utf-8"?>
<svg xmlns="http://www.w3.org/2000/svg" viewBox="0 0 50 50" fill="#e23175"><path d="M 25 2 C 14.196036 2 5.1225839 9.4734257 2.6621094 19.525391 A 1.0001 1.0001 0 0 0 2.5371094 20.066406 C 2.1886997 21.656441 2 23.306284 2 25 C 2 37.690705 12.309295 48 25 48 C 28.560265 48 31.932988 47.187942 34.943359 45.740234 A 1.0001 1.0001 0 0 0 35.332031 45.542969 C 41.676502 42.341703 46.338829 36.290995 47.632812 29.076172 A 1.0006407 1.0006407 0 0 0 47.666016 28.880859 C 47.881158 27.618485 48 26.323132 48 25 C 48 17.009164 43.910404 9.9651652 37.714844 5.8417969 A 1.0001 1.0001 0 0 0 37.353516 5.6113281 C 33.782853 3.3295758 29.546461 2 25 2 z M 25 4 C 28.935139 4 32.602148 5.0981797 35.748047 6.9765625 L 35.074219 8.6210938 A 1.0001 1.0001 0 0 0 35.105469 9.4472656 L 35.783203 10.802734 L 34.292969 12.292969 A 1.0001 1.0001 0 0 0 34.105469 12.552734 L 34 12.763672 L 33.894531 12.552734 A 1.0001 1.0001 0 0 0 33 12 L 30 12 A 1.0001 1.0001 0 0 0 29.292969 12.292969 L 27.292969 14.292969 L 25.292969 16.292969 A 1.0001 1.0001 0 0 0 25.292969 17.707031 L 27.585938 20 L 27 20 A 1.0001 1.0001 0 0 0 26.292969 20.292969 L 24.292969 22.292969 L 22.585938 24 L 21 24 A 1.0001 1.0001 0 0 0 20 25 L 20 27 A 1.0001 1.0001 0 0 0 21 28 L 22.308594 28 L 19.628906 29.072266 A 1.0001 1.0001 0 0 0 19.105469 29.552734 L 17.105469 33.552734 A 1.0001 1.0001 0 0 0 17.029297 34.242188 L 18.029297 38.242188 A 1.0001 1.0001 0 0 0 18.683594 38.949219 L 21.683594 39.949219 A 1.0001 1.0001 0 0 0 22.316406 39.949219 L 24.851562 39.103516 L 27 40.535156 L 27 44 A 1.0001 1.0001 0 0 0 27.292969 44.707031 L 28.322266 45.736328 C 27.240149 45.907887 26.130863 46 25 46 C 13.390176 46 4 36.609824 4 25 C 4 23.534759 4.1508242 22.104726 4.4355469 20.724609 L 5.9589844 20.097656 L 7.5527344 20.894531 A 1.0001 1.0001 0 0 0 8.9902344 20.140625 L 9.9023438 13.753906 L 11 13.388672 L 11 14 A 1.0001 1.0001 0 0 0 12.447266 14.894531 L 16.236328 13 L 18 13 A 1.0001 1.0001 0 0 0 18.832031 12.554688 L 20.832031 9.5546875 A 1.0001 1.0001 0 0 0 20.894531 8.5527344 L 19.894531 6.5527344 A 1.0001 1.0001 0 0 0 18.552734 6.1054688 L 18 6.3828125 L 18 6 A 1.0001 1.0001 0 0 0 17.710938 5.2988281 C 19.981286 4.4599906 22.435856 4 25 4 z M 14.720703 7 L 16 7 L 16 8 A 1.0001 1.0001 0 0 0 17.447266 8.8945312 L 18.552734 8.3417969 L 18.845703 8.9277344 L 17.464844 11 L 16 11 A 1.0001 1.0001 0 0 0 15.552734 11.105469 L 13 12.382812 L 13 12.169922 A 1.0001 1.0001 0 0 0 13.001953 12.154297 L 14.720703 7 z M 37.447266 8.1074219 C 42.628317 11.929329 46 18.058489 46 25 C 46 25.518978 45.974387 26.031549 45.9375 26.541016 L 45.734375 26.320312 A 1.0001 1.0001 0 0 0 45.023438 26 A 1.0001 1.0001 0 0 0 44.757812 26.029297 L 40.757812 27.029297 A 1.0001 1.0001 0 0 0 40 28 L 40 29 A 1.0001 1.0001 0 0 0 40.552734 29.894531 L 41.658203 30.447266 L 40.253906 33.253906 L 39.447266 33.658203 L 37 28.763672 L 37 28 A 1.0001 1.0001 0 0 0 36 27 L 33.720703 27 L 33.246094 25.578125 L 37.330078 23.943359 A 1.0001163 1.0001163 0 0 0 37.371094 23.927734 A 1.0001 1.0001 0 0 0 37.421875 23.90625 A 1.0001163 1.0001163 0 0 0 37.4375 23.898438 A 1.0001 1.0001 0 0 0 37.503906 23.863281 A 1.0001 1.0001 0 0 0 37.511719 23.859375 A 1.0001163 1.0001163 0 0 0 37.515625 23.857422 A 1.0001 1.0001 0 0 0 37.59375 23.804688 A 1.0001 1.0001 0 0 0 37.332031 22.046875 L 35.447266 21.105469 A 1.0001 1.0001 0 0 0 34.105469 21.552734 L 33.291016 23.181641 L 30.683594 24.050781 A 1.0001 1.0001 0 0 0 30.105469 24.552734 L 29.876953 25.011719 L 28.832031 23.445312 A 1.0001 1.0001 0 0 0 27.683594 23.050781 L 25.703125 23.710938 L 25.707031 23.707031 L 27.414062 22 L 29.847656 22 A 1.0001 1.0001 0 0 0 30.945312 21.382812 L 32.832031 18.554688 A 1.0001 1.0001 0 0 0 32.707031 17.292969 L 31.707031 16.292969 A 1.0001 1.0001 0 0 0 30.990234 15.990234 A 1.0001 1.0001 0 0 0 30.292969 17.707031 L 30.712891 18.126953 L 29.84375 19.429688 L 27.414062 17 L 28.707031 15.707031 L 30.414062 14 L 32.382812 14 L 33.09375 15.421875 L 33.105469 15.447266 A 1.0001 1.0001 0 0 0 33.130859 15.492188 A 1.0001 1.0001 0 0 0 33.144531 15.517578 A 1.0001 1.0001 0 0 0 33.175781 15.564453 A 1.0001 1.0001 0 0 0 33.210938 15.613281 A 1.0001 1.0001 0 0 0 33.21875 15.623047 A 1.0001 1.0001 0 0 0 33.265625 15.679688 A 1.0001 1.0001 0 0 0 33.3125 15.726562 A 1.0001 1.0001 0 0 0 33.335938 15.748047 A 1.0001 1.0001 0 0 0 33.408203 15.804688 A 1.0001 1.0001 0 0 0 33.472656 15.849609 A 1.0001 1.0001 0 0 0 33.498047 15.865234 A 1.0001 1.0001 0 0 0 33.580078 15.90625 A 1.0001 1.0001 0 0 0 33.638672 15.931641 A 1.0001 1.0001 0 0 0 33.691406 15.951172 A 1.0001 1.0001 0 0 0 33.71875 15.958984 A 1.0001 1.0001 0 0 0 33.783203 15.974609 A 1.0001 1.0001 0 0 0 33.857422 15.988281 A 1.0001 1.0001 0 0 0 33.867188 15.990234 A 1.0001 1.0001 0 0 0 33.869141 15.990234 A 1.0001 1.0001 0 0 0 33.929688 15.996094 A 1.0001 1.0001 0 0 0 33.992188 16 A 1.0001 1.0001 0 0 0 34 16 A 1.0001 1.0001 0 0 0 34.294922 15.955078 A 1.0001 1.0001 0 0 0 34.564453 15.826172 A 1.0001 1.0001 0 0 0 34.716797 15.697266 A 1.0001 1.0001 0 0 0 34.783203 15.621094 A 1.0001 1.0001 0 0 0 34.890625 15.453125 A 1.0001 1.0001 0 0 0 34.894531 15.447266 L 35.822266 13.591797 L 37.707031 11.707031 A 1.0001 1.0001 0 0 0 37.894531 10.552734 L 37.097656 8.9589844 L 37.447266 8.1074219 z M 12.140625 8.4160156 L 11.208984 11.208984 L 8.6835938 12.050781 A 1.0001 1.0001 0 0 0 8.3203125 12.265625 C 9.4233835 10.82226 10.705818 9.5296363 12.140625 8.4160156 z M 8.1054688 12.554688 A 1.0001 1.0001 0 0 0 8.0097656 12.859375 L 7.2070312 18.484375 L 6.4472656 18.105469 A 1.0001 1.0001 0 0 0 5.6191406 18.076172 L 5.0996094 18.291016 C 5.7997993 16.209425 6.8285816 14.28613 8.1054688 12.554688 z M 22.078125 16.001953 C 21.948469 15.991859 21.815094 16.008484 21.683594 16.052734 C 21.159594 16.227734 20.875781 16.792406 21.050781 17.316406 L 21.357422 18.234375 C 21.335422 18.252375 21.313969 18.271969 21.292969 18.292969 L 20.292969 19.292969 C 20.006969 19.578969 19.921172 20.008813 20.076172 20.382812 C 20.231172 20.755813 20.596 21 21 21 L 23 21 C 23.321 21 23.623547 20.846938 23.810547 20.585938 C 23.998547 20.324938 24.049266 19.988594 23.947266 19.683594 L 22.947266 16.683594 C 22.816766 16.291344 22.467094 16.032234 22.078125 16.001953 z M 27.591797 25.189453 L 29.167969 27.554688 A 1.0001 1.0001 0 0 0 30.894531 27.447266 L 31.414062 26.408203 L 32.050781 28.316406 A 1.0001 1.0001 0 0 0 32.214844 28.617188 L 30.111328 28.966797 L 25.371094 27.072266 A 1.0001 1.0001 0 0 0 24.980469 27 A 1.0001 1.0001 0 0 0 24.628906 27.072266 L 24.150391 27.263672 L 25.541016 25.875 L 27.591797 25.189453 z M 44.667969 28.113281 L 45.595703 29.117188 C 44.566712 34.306536 41.616514 38.784988 37.53125 41.830078 L 38.863281 39.505859 L 41.857422 34.513672 A 1.0001 1.0001 0 0 0 41.861328 34.505859 A 1.0001163 1.0001163 0 0 0 41.894531 34.447266 L 43.894531 30.447266 A 1.0001 1.0001 0 0 0 43.447266 29.105469 L 42.53125 28.648438 L 44.667969 28.113281 z M 25 29.076172 L 29.628906 30.927734 A 1.0001 1.0001 0 0 0 30.164062 30.986328 L 35.435547 30.107422 L 38.105469 35.447266 A 1.0001 1.0001 0 0 0 38.667969 35.943359 L 37.142578 38.486328 A 1.0001 1.0001 0 0 0 37.132812 38.503906 L 34.011719 43.951172 C 32.93319 44.464321 31.813327 44.903306 30.642578 45.228516 L 29 43.585938 L 29 40 A 1.0001 1.0001 0 0 0 28.554688 39.167969 L 25.554688 37.167969 A 1.0001 1.0001 0 0 0 24.683594 37.050781 L 22 37.945312 L 19.837891 37.224609 L 19.060547 34.117188 L 20.724609 30.787109 L 25 29.076172 z" fill="#e23175"/></svg>
