<?xml version="1.0" encoding="utf-8"?>
<svg xmlns="http://www.w3.org/2000/svg" viewBox="0 0 50 50" fill="#fd8a07"><path d="M 49.511719 2.140625 C 49.207031 1.960938 48.832031 1.953125 48.523438 2.121094 L 37.964844 7.882813 L 25.417969 2.089844 C 25.144531 1.964844 24.824219 1.96875 24.554688 2.105469 L 13 7.882813 L 1.445313 2.105469 C 1.136719 1.953125 0.769531 1.96875 0.472656 2.148438 C 0.179688 2.332031 0 2.652344 0 3 L 0 41 C 0 41.378906 0.214844 41.726563 0.554688 41.894531 L 12.554688 47.894531 C 12.835938 48.035156 13.164063 48.035156 13.449219 47.894531 L 25.019531 42.109375 L 37.582031 47.910156 C 37.714844 47.96875 37.855469 48 38 48 C 38.164063 48 38.328125 47.960938 38.480469 47.878906 L 49.480469 41.878906 C 49.800781 41.703125 50 41.367188 50 41 L 50 3 C 50 2.648438 49.8125 2.320313 49.511719 2.140625 Z M 44.273438 19.324219 C 44.804688 19.1875 45.351563 19.507813 45.492188 20.042969 C 45.578125 20.378906 45.65625 20.726563 45.71875 21.089844 C 45.820313 21.632813 45.460938 22.152344 44.914063 22.253906 C 44.855469 22.265625 44.796875 22.269531 44.734375 22.269531 C 44.261719 22.269531 43.839844 21.929688 43.753906 21.449219 C 43.695313 21.136719 43.628906 20.835938 43.554688 20.546875 C 43.417969 20.011719 43.738281 19.464844 44.273438 19.324219 Z M 41.566406 15.171875 C 41.976563 14.800781 42.609375 14.832031 42.980469 15.242188 C 43.222656 15.511719 43.453125 15.796875 43.675781 16.097656 C 44 16.546875 43.902344 17.171875 43.453125 17.496094 C 43.277344 17.625 43.070313 17.6875 42.867188 17.6875 C 42.558594 17.6875 42.253906 17.546875 42.058594 17.277344 C 41.878906 17.03125 41.691406 16.800781 41.492188 16.585938 C 41.125 16.175781 41.15625 15.542969 41.566406 15.171875 Z M 9.941406 17.023438 C 10.277344 16.585938 10.90625 16.503906 11.34375 16.839844 C 11.59375 17.027344 11.839844 17.199219 12.085938 17.355469 C 12.554688 17.648438 12.695313 18.265625 12.402344 18.734375 C 12.210938 19.035156 11.886719 19.203125 11.554688 19.203125 C 11.371094 19.203125 11.1875 19.152344 11.023438 19.050781 C 10.726563 18.863281 10.429688 18.65625 10.128906 18.425781 C 9.6875 18.089844 9.605469 17.460938 9.941406 17.023438 Z M 7.152344 15.410156 C 6.941406 15.148438 6.734375 14.871094 6.523438 14.582031 C 6.199219 14.136719 6.296875 13.511719 6.742188 13.183594 C 7.191406 12.859375 7.816406 12.957031 8.140625 13.40625 C 8.335938 13.671875 8.527344 13.925781 8.722656 14.171875 C 9.0625 14.605469 8.988281 15.234375 8.554688 15.574219 C 8.371094 15.71875 8.152344 15.789063 7.9375 15.789063 C 7.640625 15.789063 7.347656 15.660156 7.152344 15.410156 Z M 15.707031 38.292969 C 16.097656 38.683594 16.097656 39.316406 15.707031 39.707031 C 15.511719 39.902344 15.257813 40 15 40 C 14.742188 40 14.488281 39.902344 14.292969 39.707031 L 12 37.414063 L 9.707031 39.707031 C 9.511719 39.902344 9.257813 40 9 40 C 8.742188 40 8.488281 39.902344 8.292969 39.707031 C 7.902344 39.316406 7.902344 38.683594 8.292969 38.292969 L 10.585938 36 L 8.292969 33.707031 C 7.902344 33.316406 7.902344 32.683594 8.292969 32.292969 C 8.683594 31.902344 9.316406 31.902344 9.707031 32.292969 L 12 34.585938 L 14.292969 32.292969 C 14.683594 31.902344 15.316406 31.902344 15.707031 32.292969 C 16.097656 32.683594 16.097656 33.316406 15.707031 33.707031 L 13.414063 36 Z M 15.453125 20.394531 L 15.296875 20.394531 C 14.746094 20.382813 14.308594 19.925781 14.320313 19.371094 C 14.332031 18.820313 14.75 18.375 15.339844 18.394531 L 15.453125 18.394531 C 15.703125 18.394531 15.949219 18.378906 16.191406 18.347656 C 16.738281 18.289063 17.238281 18.671875 17.308594 19.21875 C 17.375 19.765625 16.984375 20.265625 16.4375 20.335938 C 16.113281 20.375 15.785156 20.394531 15.453125 20.394531 Z M 19.230469 35.824219 C 18.960938 35.949219 18.683594 36.09375 18.398438 36.25 C 18.242188 36.335938 18.078125 36.375 17.914063 36.375 C 17.5625 36.375 17.222656 36.1875 17.039063 35.859375 C 16.773438 35.375 16.949219 34.765625 17.429688 34.5 C 17.757813 34.320313 18.074219 34.160156 18.378906 34.015625 C 18.875 33.777344 19.472656 33.996094 19.707031 34.492188 C 19.945313 34.992188 19.730469 35.589844 19.230469 35.824219 Z M 20.546875 18.859375 C 20.390625 18.949219 20.21875 18.988281 20.050781 18.988281 C 19.703125 18.988281 19.367188 18.808594 19.183594 18.484375 C 18.910156 18.007813 19.074219 17.394531 19.554688 17.121094 C 19.828125 16.96875 20.097656 16.800781 20.367188 16.628906 C 20.828125 16.332031 21.449219 16.46875 21.746094 16.933594 C 22.046875 17.398438 21.910156 18.015625 21.445313 18.3125 C 21.148438 18.503906 20.851563 18.6875 20.546875 18.859375 Z M 24.613281 34.417969 C 24.5 34.871094 24.089844 35.175781 23.640625 35.175781 C 23.5625 35.175781 23.480469 35.167969 23.402344 35.148438 C 23.128906 35.082031 22.867188 35.039063 22.59375 35.023438 C 22.042969 34.988281 21.625 34.511719 21.65625 33.960938 C 21.691406 33.410156 22.160156 32.996094 22.71875 33.027344 C 23.105469 33.050781 23.5 33.109375 23.882813 33.207031 C 24.417969 33.339844 24.746094 33.882813 24.613281 34.417969 Z M 25.535156 15.292969 L 24.75 15.898438 C 24.566406 16.039063 24.351563 16.109375 24.136719 16.109375 C 23.839844 16.109375 23.542969 15.976563 23.347656 15.722656 C 23.007813 15.285156 23.089844 14.65625 23.523438 14.320313 L 24.324219 13.703125 C 24.761719 13.367188 25.390625 13.453125 25.726563 13.890625 C 26.058594 14.328125 25.976563 14.957031 25.535156 15.292969 Z M 28.953125 36.917969 C 28.773438 37.246094 28.429688 37.433594 28.078125 37.433594 C 27.914063 37.433594 27.75 37.394531 27.597656 37.308594 C 27.285156 37.140625 26.992188 36.964844 26.699219 36.792969 C 26.226563 36.511719 26.070313 35.898438 26.351563 35.421875 C 26.636719 34.949219 27.25 34.792969 27.722656 35.074219 C 27.996094 35.238281 28.273438 35.398438 28.5625 35.558594 C 29.046875 35.824219 29.222656 36.433594 28.953125 36.917969 Z M 29.449219 13.035156 C 29.210938 13.082031 28.953125 13.164063 28.683594 13.277344 C 28.558594 13.332031 28.425781 13.355469 28.296875 13.355469 C 27.90625 13.355469 27.535156 13.125 27.375 12.742188 C 27.160156 12.234375 27.398438 11.648438 27.910156 11.433594 C 28.300781 11.269531 28.679688 11.148438 29.046875 11.074219 C 29.59375 10.960938 30.113281 11.3125 30.226563 11.851563 C 30.339844 12.394531 29.992188 12.921875 29.449219 13.035156 Z M 32.800781 38.953125 C 32.769531 38.953125 32.734375 38.953125 32.703125 38.949219 C 32.328125 38.914063 31.96875 38.863281 31.628906 38.800781 C 31.085938 38.699219 30.726563 38.175781 30.824219 37.632813 C 30.925781 37.089844 31.453125 36.726563 31.992188 36.832031 C 32.28125 36.886719 32.578125 36.929688 32.894531 36.960938 C 33.445313 37.011719 33.847656 37.5 33.792969 38.050781 C 33.742188 38.566406 33.308594 38.953125 32.800781 38.953125 Z M 34.234375 13.230469 C 34.1875 13.230469 34.144531 13.226563 34.097656 13.21875 C 33.777344 13.175781 33.460938 13.140625 33.144531 13.109375 C 32.59375 13.058594 32.191406 12.570313 32.242188 12.019531 C 32.296875 11.472656 32.777344 11.070313 33.335938 11.121094 C 33.675781 11.152344 34.023438 11.191406 34.367188 11.238281 C 34.914063 11.3125 35.300781 11.816406 35.222656 12.363281 C 35.15625 12.867188 34.726563 13.230469 34.234375 13.230469 Z M 38.070313 38.273438 C 37.726563 38.40625 37.378906 38.519531 37.023438 38.613281 C 36.9375 38.636719 36.847656 38.648438 36.761719 38.648438 C 36.320313 38.648438 35.917969 38.355469 35.796875 37.910156 C 35.652344 37.378906 35.964844 36.828125 36.5 36.683594 C 36.785156 36.605469 37.070313 36.511719 37.355469 36.40625 C 37.867188 36.210938 38.449219 36.464844 38.644531 36.980469 C 38.84375 37.496094 38.585938 38.074219 38.070313 38.273438 Z M 39.933594 14.003906 C 39.761719 14.363281 39.40625 14.570313 39.03125 14.570313 C 38.886719 14.570313 38.742188 14.539063 38.601563 14.476563 C 38.324219 14.34375 38.039063 14.222656 37.753906 14.113281 C 37.238281 13.914063 36.980469 13.335938 37.179688 12.820313 C 37.375 12.304688 37.953125 12.046875 38.472656 12.246094 C 38.808594 12.375 39.136719 12.515625 39.460938 12.671875 C 39.960938 12.90625 40.171875 13.503906 39.933594 14.003906 Z M 42.519531 35.164063 C 42.277344 35.441406 42.023438 35.703125 41.761719 35.949219 C 41.570313 36.132813 41.324219 36.222656 41.074219 36.222656 C 40.808594 36.222656 40.546875 36.117188 40.347656 35.910156 C 39.96875 35.507813 39.984375 34.875 40.386719 34.496094 C 40.601563 34.292969 40.8125 34.074219 41.015625 33.84375 C 41.378906 33.425781 42.011719 33.386719 42.425781 33.75 C 42.84375 34.117188 42.882813 34.746094 42.519531 35.164063 Z M 45.121094 30.46875 C 45.007813 30.816406 44.886719 31.152344 44.753906 31.476563 C 44.597656 31.863281 44.222656 32.101563 43.828125 32.101563 C 43.703125 32.101563 43.574219 32.078125 43.453125 32.027344 C 42.941406 31.820313 42.695313 31.238281 42.902344 30.726563 C 43.015625 30.445313 43.117188 30.15625 43.214844 29.855469 C 43.386719 29.328125 43.949219 29.042969 44.472656 29.210938 C 45 29.378906 45.289063 29.941406 45.121094 30.46875 Z M 45.921875 26.328125 C 45.878906 26.851563 45.441406 27.246094 44.925781 27.246094 C 44.898438 27.246094 44.867188 27.242188 44.839844 27.242188 C 44.289063 27.195313 43.882813 26.710938 43.929688 26.160156 C 43.953125 25.851563 43.972656 25.535156 43.984375 25.210938 C 44.007813 24.65625 44.484375 24.234375 45.023438 24.246094 C 45.574219 24.269531 46.003906 24.734375 45.984375 25.285156 C 45.972656 25.640625 45.949219 25.988281 45.921875 26.328125 Z" fill="#fd8a07"/></svg>
