<?xml version="1.0" encoding="utf-8"?>
<!-- Generator: Adobe Illustrator 25.0.1, SVG Export Plug-In . SVG Version: 6.00 Build 0)  -->
<svg version="1.1" id="Layer_1" xmlns="http://www.w3.org/2000/svg" xmlns:xlink="http://www.w3.org/1999/xlink" x="0px" y="0px"
	 viewBox="0 0 48 48" style="enable-background:new 0 0 48 48;" xml:space="preserve">
<style type="text/css">
	.st0{fill:#FFFFFF;}
</style>
<path class="st0" d="M18.7,5c-1.6,0-3,0.8-3.8,2.1L13.1,10h-2.6C6.9,10,4,12.9,4,16.5v15c0,3.6,2.9,6.5,6.5,6.5h22
	c3.6,0,6.5-2.9,6.5-6.5v-15c0-3.6-2.9-6.5-6.5-6.5h-2.7l-1.7-2.8C27.3,5.8,25.9,5,24.3,5H18.7z M18.7,8h5.6c0.5,0,1,0.3,1.3,0.7
	l2.1,3.5C28,12.7,28.5,13,29,13h3.5c2,0,3.5,1.5,3.5,3.5v15c0,2-1.5,3.5-3.5,3.5h-22c-2,0-3.5-1.5-3.5-3.5v-15c0-2,1.5-3.5,3.5-3.5
	h3.4c0.5,0,1-0.3,1.3-0.7l2.2-3.6C17.7,8.3,18.2,8,18.7,8z M21.5,16c-4.1,0-7.5,3.4-7.5,7.5s3.4,7.5,7.5,7.5s7.5-3.4,7.5-7.5
	S25.6,16,21.5,16z M41,16v15.5c0,4.7-3.8,8.5-8.5,8.5H10c1.2,1.8,3.2,3,5.5,3h17C38.8,43,44,37.8,44,31.5v-10
	C44,19.2,42.8,17.2,41,16z M21.5,19c2.5,0,4.5,2,4.5,4.5S24,28,21.5,28S17,26,17,23.5S19,19,21.5,19z"/>
</svg>
