<?xml version="1.0" encoding="utf-8"?>
<svg xmlns="http://www.w3.org/2000/svg" viewBox="0 0 50 50" fill="#ed6270"><path d="M 25 1 C 19.484375 1 15 5.484375 15 11 C 15 16.515625 19.484375 21 25 21 C 30.515625 21 35 16.515625 35 11 C 35 5.484375 30.515625 1 25 1 Z M 25 5 C 25.550781 5 26 5.445313 26 6 C 26 6.554688 25.550781 7 25 7 C 22.792969 7 21 8.792969 21 11 C 21 11.554688 20.550781 12 20 12 C 19.449219 12 19 11.554688 19 11 C 19 7.691406 21.691406 5 25 5 Z M 22 22.605469 L 22 43.246094 L 25 48.988281 L 28 43.246094 L 28 22.605469 C 27.039063 22.855469 26.035156 23 25 23 C 23.964844 23 22.960938 22.855469 22 22.605469 Z" fill="#ed6270"/></svg>
