<?xml version="1.0" encoding="utf-8"?>
<svg xmlns="http://www.w3.org/2000/svg" viewBox="0 0 80 80" fill="#e23175"><path d="M 33.28125 7.0390625 C 32.054951 6.9989345 30.81684 7.3264717 30.224609 8.3867188 C 29.527444 9.6121577 29.683558 11.036263 30.414062 12.03125 C 30.722405 12.451229 31.113592 12.816456 31.546875 13.160156 C 29.91539 13.028341 28.4801 13.098026 27.326172 13.447266 C 26.716808 13.631692 26.171612 13.893838 25.734375 14.314453 C 25.297138 14.735069 25 15.357831 25 16 C 25 17.332813 25.670726 18.468563 26.615234 19.265625 C 27.559742 20.062687 28.764367 20.616374 30.097656 21.107422 C 32.764235 22.089517 35.992395 22.807562 38.609375 23.919922 A 1.0001 1.0001 0 0 0 38.615234 23.923828 C 41.460463 25.109484 43.518992 26.393193 44.714844 27.105469 A 1.0001 1.0001 0 0 0 44.65625 27.277344 C 44.152692 29.284711 43.489732 30.427749 42.800781 31.060547 C 42.11183 31.693344 41.359318 31.915306 40.330078 31.941406 C 38.271598 31.993607 35.332744 31 32 31 C 25.715278 31 20.882698 33.732301 17.716797 37.722656 C 14.550895 41.713011 13 46.919872 13 52 C 13 52.029974 13.001794 52.056214 13.001953 52.085938 C 10.217057 52.540476 8 54.866991 8 58 C 8 61.532222 10.883164 64 14 64 C 15.607559 64 16.890914 63.386525 17.728516 62.552734 C 17.851161 62.430647 17.947495 62.298658 18.052734 62.169922 C 18.092819 63.056539 17.907828 64.409978 17.257812 66.421875 A 1.0001 1.0001 0 0 0 17.208984 66.728516 C 17.208984 68.776907 18.276374 70.094815 19.417969 70.599609 C 20.559519 71.104357 21.736111 71 22 71 L 52 71 A 1.0001 1.0001 0 0 0 53 70 C 53 69.079071 52.828762 66.750762 50.394531 65.017578 C 48.680764 63.797368 45.879459 62.827352 41.453125 62.34375 C 41.86099 62.156271 42.256404 62.097741 42.658203 61.867188 C 44.567961 60.771357 46.340996 59.093147 47.287109 56.765625 C 47.660885 57.36065 48.086874 57.947314 48.544922 58.525391 C 49.93658 60.281726 51.641673 61.955627 53.007812 63.322266 A 1.0001 1.0001 0 0 0 53.021484 63.335938 C 54.675335 64.928584 54.985517 66.462254 55.396484 67.916016 C 55.601968 68.642896 55.814206 69.389025 56.396484 70.023438 C 56.978764 70.657852 57.902769 71 59 71 L 69 71 A 1.0001 1.0001 0 0 0 70 70 C 70 68.334958 69.493941 66.997212 68.699219 66.019531 C 67.904497 65.04185 66.869305 64.430361 65.863281 63.990234 C 64.857258 63.550108 63.859969 63.271793 63.089844 63.011719 C 62.319719 62.751644 61.830289 62.439727 61.800781 62.400391 A 1.0001 1.0001 0 0 0 61.78125 62.375 C 61.77605 62.3685 61.483607 61.915424 61.191406 61.339844 C 60.899206 60.764263 60.552788 60.011003 60.224609 59.177734 C 59.568252 57.511197 59 55.500593 59 54 C 59 52.552018 59.681998 50.876384 60.445312 48.646484 C 61.145112 46.602137 61.861022 44.092004 61.976562 40.882812 C 63.370484 40.809708 64.749409 40.698585 66.009766 40.486328 C 67.562141 40.224875 68.953843 39.842969 70.058594 39.166016 C 71.163345 38.489062 72 37.364583 72 36 C 72 31.691761 70.976159 27.254877 68.568359 23.816406 C 66.16056 20.377935 62.290167 18 57 18 C 55.623513 18 54.250265 18.208425 52.945312 18.605469 C 52.024767 17.550114 50.146552 15.575732 47.458984 13.560547 A 1.0001 1.0001 0 0 0 47.455078 13.556641 C 44.228114 11.171504 40.577144 9.1497082 37.472656 8.0078125 C 35.920412 7.4368647 34.50955 7.0792561 33.28125 7.0390625 z M 33.216797 9.0371094 C 34.08756 9.0656034 35.351744 9.3589635 36.78125 9.8847656 C 39.640262 10.93637 43.186542 12.890151 46.265625 15.166016 C 48.398499 16.766185 49.994183 18.345622 50.958984 19.390625 C 50.165453 19.78044 49.418397 20.24931 48.734375 20.794922 C 47.42611 19.70824 45.653745 18.525145 43.546875 17.162109 A 1.0001908 1.0001908 0 0 0 43.542969 17.160156 A 1.0001 1.0001 0 0 0 43.525391 17.148438 A 1.0001908 1.0001908 0 0 0 43.521484 17.146484 C 43.521484 17.146484 43.519531 17.144531 43.519531 17.144531 C 43.517038 17.143008 43.514212 17.142147 43.511719 17.140625 C 43.137583 16.91795 42.755461 16.701637 42.367188 16.492188 C 42.056682 16.323082 41.744149 16.163844 41.429688 16.007812 C 41.195113 15.888906 40.96243 15.777302 40.726562 15.662109 C 40.65613 15.629541 40.586163 15.594428 40.515625 15.5625 C 38.357732 14.518666 36.189752 13.606115 34.542969 12.712891 C 33.330481 12.05523 32.420646 11.386015 32.025391 10.847656 C 31.630136 10.309298 31.567336 10.065312 31.962891 9.3730469 A 1.0001 1.0001 0 0 0 31.96875 9.3632812 C 32.06267 9.1941529 32.346034 9.0086155 33.216797 9.0371094 z M 30.498047 15.101562 C 30.857922 15.109565 31.236453 15.131015 31.630859 15.167969 C 33.97853 15.387933 36.872077 16.120626 39.662109 17.375 C 39.762729 17.423475 39.86476 17.470634 39.964844 17.519531 C 40.13309 17.597704 40.299623 17.681674 40.466797 17.763672 C 41.085969 18.07455 41.686854 18.396499 42.261719 18.730469 C 42.331399 18.772038 42.403411 18.809272 42.472656 18.851562 C 42.473916 18.852332 42.477109 18.853126 42.478516 18.853516 C 42.481727 18.855425 42.485072 18.857465 42.488281 18.859375 C 44.464142 20.138087 46.118971 21.256408 47.273438 22.185547 C 46.714498 22.829488 46.22921 23.541872 45.837891 24.322266 C 45.680952 24.614029 45.561394 24.912252 45.433594 25.208984 C 44.248531 24.495535 42.210806 23.256224 39.390625 22.080078 C 36.523605 20.861438 33.251484 20.137373 30.789062 19.230469 C 29.557852 18.777016 28.540414 18.273142 27.904297 17.736328 C 27.26818 17.199515 27 16.723687 27 16 C 27 15.888169 27.0026 15.867947 27.119141 15.755859 C 27.235658 15.643772 27.498271 15.484214 27.904297 15.361328 C 28.513337 15.177 29.418423 15.077556 30.498047 15.101562 z M 57 20 C 61.709833 20 64.83944 21.975112 66.931641 24.962891 C 69.023841 27.950669 70 32.013239 70 36 C 70 36.635417 69.742905 37.010938 69.011719 37.458984 C 68.280532 37.907031 67.094109 38.275125 65.677734 38.513672 C 62.844985 38.990766 59.125 39 56 39 A 1.0001 1.0001 0 1 0 56 41 C 57.246793 41 58.60377 40.992384 59.974609 40.960938 C 59.854652 43.837873 59.218764 46.060009 58.554688 48 C 57.818002 50.152101 57 51.975982 57 54 C 57 55.971407 57.656639 58.117897 58.363281 59.912109 C 58.716602 60.809216 59.086529 61.612456 59.408203 62.246094 C 59.725835 62.871768 59.944719 63.273769 60.208984 63.607422 C 60.795862 64.381799 61.609589 64.622044 62.451172 64.90625 C 63.296735 65.1918 64.222773 65.454892 65.0625 65.822266 C 65.902227 66.189639 66.635971 66.650806 67.148438 67.28125 C 67.501101 67.715103 67.71881 68.301888 67.853516 69 L 59 69 C 58.246731 69 58.048285 68.864931 57.871094 68.671875 C 57.693903 68.478819 57.510704 68.046541 57.320312 67.373047 C 56.939529 66.026058 56.456352 63.868838 54.408203 61.896484 L 54.421875 61.908203 C 53.047015 60.532842 51.393873 58.899368 50.113281 57.283203 C 48.838638 55.674542 48.009642 54.074228 48.001953 53.015625 C 48.001961 53.010319 48.001953 53.005311 48.001953 53 C 48.001953 50.564752 47.30886 47.617177 45.433594 45.205078 C 43.558327 42.792979 40.451184 41 36 41 A 1.0001 1.0001 0 1 0 36 43 C 39.932816 43 42.325735 44.465943 43.855469 46.433594 C 45.378094 48.392103 45.994289 50.929788 46 52.970703 A 1.0001 1.0001 0 0 0 46 53 C 46 53.004615 46.00194 53.009058 46.001953 53.013672 C 45.996879 56.633631 44.069759 58.75129 41.662109 60.132812 C 39.251284 61.516158 36.32982 62 35 62 A 1.0001 1.0001 0 0 0 35 64 C 43.316714 64 47.378606 65.325168 49.234375 66.646484 C 50.473136 67.528488 50.764955 68.299352 50.875 69 L 22 69 C 21.513889 69 20.794921 69.01999 20.228516 68.769531 C 19.674483 68.524547 19.241825 68.184585 19.222656 66.792969 C 19.897544 64.63709 20.153483 63.038179 20.042969 61.791016 C 19.927762 60.4909 19.358834 59.528583 18.669922 58.941406 C 17.98101 58.354229 17.255797 58.086864 16.773438 57.828125 C 16.291078 57.569386 16.11192 57.429206 16.009766 57.105469 A 1.0001 1.0001 0 0 0 16.001953 57.083984 C 15.504409 55.626997 15 54.3488 15 52 C 15 47.330128 16.449105 42.536989 19.283203 38.964844 C 22.117302 35.392699 26.284722 33 32 33 C 34.905256 33 37.71709 34.007003 40.380859 33.939453 C 41.712744 33.905683 43.063467 33.537077 44.154297 32.535156 C 44.761911 31.977066 45.267293 31.232362 45.701172 30.314453 L 46.376953 29.976562 L 46.533203 29.095703 L 46.279297 28.824219 C 46.373859 28.529648 46.468557 28.236185 46.552734 27.912109 A 1.0001 1.0001 0 0 0 46.765625 27.46875 C 46.932098 26.728969 47.207468 25.987228 47.603516 25.253906 A 1.0001 1.0001 0 0 0 47.619141 25.226562 C 49.24542 21.973102 53.089469 20 57 20 z M 61 29 A 2 2 0 0 0 59 31 A 2 2 0 0 0 61 33 A 2 2 0 0 0 63 31 A 2 2 0 0 0 61 29 z M 46.525391 32.230469 L 45.724609 32.632812 L 45.566406 33.513672 L 46.179688 34.167969 L 46.525391 34.230469 L 47.328125 33.830078 L 47.484375 32.947266 L 46.873047 32.292969 L 46.525391 32.230469 z M 48.929688 35.398438 L 48.128906 35.798828 L 47.970703 36.681641 L 48.582031 37.335938 L 48.929688 37.398438 L 49.730469 36.996094 L 49.888672 36.115234 L 49.277344 35.460938 L 48.929688 35.398438 z M 52.271484 37.5625 L 51.470703 37.962891 L 51.3125 38.845703 L 51.925781 39.5 L 52.271484 39.5625 L 53.074219 39.160156 L 53.230469 38.279297 L 52.619141 37.625 L 52.271484 37.5625 z M 32.113281 41.837891 L 31.310547 42.240234 L 31.154297 43.121094 L 31.765625 43.775391 L 32.113281 43.837891 L 32.914062 43.435547 L 33.072266 42.554688 L 32.458984 41.900391 L 32.113281 41.837891 z M 28.650391 43.814453 L 27.849609 44.214844 L 27.691406 45.097656 L 28.304688 45.751953 L 28.650391 45.814453 L 29.453125 45.412109 L 29.609375 44.53125 L 28.998047 43.876953 L 28.650391 43.814453 z M 26.125 46.863281 L 25.324219 47.263672 L 25.166016 48.146484 L 25.779297 48.800781 L 26.125 48.863281 L 26.927734 48.460938 L 27.083984 47.578125 L 26.472656 46.923828 L 26.125 46.863281 z M 13.152344 54.076172 C 13.364069 55.576474 13.763301 56.717586 14.101562 57.707031 C 14.101562 57.707031 14.103516 57.708984 14.103516 57.708984 C 14.412973 58.686001 15.193004 59.249162 15.828125 59.589844 C 16.24286 59.812309 16.596145 59.990579 16.908203 60.169922 C 16.808887 60.468123 16.625385 60.827193 16.316406 61.134766 C 15.835508 61.613475 15.118441 62 14 62 C 11.906836 62 10 60.467778 10 58 C 10 55.822873 11.316517 54.406318 13.152344 54.076172 z" fill="#e23175"/></svg>
