<?xml version="1.0" encoding="utf-8"?>
<!-- Generator: Adobe Illustrator 25.0.1, SVG Export Plug-In . SVG Version: 6.00 Build 0)  -->
<svg version="1.1" id="Layer_1" xmlns="http://www.w3.org/2000/svg" xmlns:xlink="http://www.w3.org/1999/xlink" x="0px" y="0px"
	 viewBox="0 0 64 64" style="enable-background:new 0 0 64 64;" xml:space="preserve">
<style type="text/css">
	.st0{fill:#757575;}
</style>
<path class="st0" d="M28.3,10.8C17.1,10.8,7.9,20,7.9,31.4S17,52,28.3,52c5.2,0,9.9-2,13.5-5.2L43,48l-1.1,1.1
	c-0.6,0.6-0.6,1.6,0,2.2l9,9.1c0.3,0.3,0.7,0.5,1.1,0.5s0.8-0.1,1-0.5l4-4c0.5-0.7,0.5-1.6-0.1-2.2l-9-9.1c-0.3-0.3-0.7-0.4-1.1-0.4
	s-0.8,0.1-1,0.4l-1,1.1L43.6,45c3.2-3.7,5.1-8.4,5.1-13.6C48.7,20,39.5,10.8,28.3,10.8z M28.3,13.9c9.6,0,17.4,7.9,17.4,17.6
	S37.9,49,28.3,49s-17.4-7.8-17.4-17.5S18.7,13.9,28.3,13.9z M28.4,20.1c-4.8,0-9,3-10.6,7.5c-0.3,0.7,0.1,1.5,0.7,1.7
	c0.1,0,0.3,0.1,0.5,0.1c0.5,0,1-0.4,1.3-0.9c1.2-3.5,4.5-5.8,8.1-5.8c0.7,0,1.3-0.6,1.3-1.3C29.7,20.7,29.1,20.1,28.4,20.1z
	 M18.9,32.5c-0.7,0-1.3,0.5-1.3,1.3V34c0,0.7,0.5,1.3,1.3,1.3c0.7,0,1.3-0.6,1.3-1.3v-0.2C20.2,33,19.7,32.5,18.9,32.5z M46.9,48.3
	l6.9,7l-1.9,1.9l-6.9-7L46.9,48.3z"/>
</svg>
