<?xml version="1.0" encoding="utf-8"?>
<svg xmlns="http://www.w3.org/2000/svg" viewBox="0 0 50 50" fill="#e23175"><path d="M 10 4 C 6.691 4 4 6.691 4 10 C 4 13.309 6.691 16 10 16 C 13.309 16 16 13.309 16 10 C 16 6.691 13.309 4 10 4 z M 25 4 C 21.691 4 19 6.691 19 10 C 19 13.309 21.691 16 25 16 C 28.309 16 31 13.309 31 10 C 31 6.691 28.309 4 25 4 z M 40 4 C 36.691 4 34 6.691 34 10 C 34 13.309 36.691 16 40 16 C 43.309 16 46 13.309 46 10 C 46 6.691 43.309 4 40 4 z M 10 19 C 6.691 19 4 21.691 4 25 C 4 28.309 6.691 31 10 31 C 13.309 31 16 28.309 16 25 C 16 21.691 13.309 19 10 19 z M 25 19 C 21.691 19 19 21.691 19 25 C 19 28.309 21.691 31 25 31 C 28.309 31 31 28.309 31 25 C 31 21.691 28.309 19 25 19 z M 40 19 C 36.691 19 34 21.691 34 25 C 34 28.309 36.691 31 40 31 C 43.309 31 46 28.309 46 25 C 46 21.691 43.309 19 40 19 z M 10 34 C 6.691 34 4 36.691 4 40 C 4 43.309 6.691 46 10 46 C 13.309 46 16 43.309 16 40 C 16 36.691 13.309 34 10 34 z M 25 34 C 21.691 34 19 36.691 19 40 C 19 43.309 21.691 46 25 46 C 28.309 46 31 43.309 31 40 C 31 36.691 28.309 34 25 34 z M 40 34 C 36.691 34 34 36.691 34 40 C 34 43.309 36.691 46 40 46 C 43.309 46 46 43.309 46 40 C 46 36.691 43.309 34 40 34 z" fill="#e23175"/></svg>
