<svg id="Layer_1" data-name="Layer 1" xmlns="http://www.w3.org/2000/svg" viewBox="0 0 44.54 50"><path d="M27.2,39.29a11.41,11.41,0,0,1,2-6.5v-19a1.06,1.06,0,0,1,2.12,0h0V30.45A11.17,11.17,0,0,1,40.9,28V7.44H42a1.07,1.07,0,1,0,.21-2.13H31.33V3.19A3.2,3.2,0,0,0,28.15,0H19.64a3.21,3.21,0,0,0-3.19,3.19V5.31H5.82a1.07,1.07,0,0,0,0,2.13H6.89V45.71a3.19,3.19,0,0,0,3.19,3.18H32.36A11.52,11.52,0,0,1,27.2,39.29Zm-8.62,1.1a1.07,1.07,0,0,1-2.13,0V13.82a1.07,1.07,0,0,1,2.13,0Zm0-37.2a1,1,0,0,1,1-1.06h8.53a1,1,0,0,1,1.06,1V5.31H18.58ZM25,40.39a1.07,1.07,0,0,1-2.13,0V13.82a1.07,1.07,0,0,1,2.13,0Z" transform="translate(-4.85)" style="fill:#ed6270"/><path d="M38.73,28.57A10.71,10.71,0,0,0,35,49.32h.06a9,9,0,0,0,1,.33h0l.51.11h.09l.58.1h.39L38,50h1.29l.62-.06h.31l.58-.1.61-.13a9,9,0,0,0,1-.33h0a10.71,10.71,0,0,0-3.74-20.75Zm0,.93a9.79,9.79,0,0,1,6.32,17.27,5.91,5.91,0,0,0-.81-1.34,12.24,12.24,0,0,1-11,0,6,6,0,0,0-.82,1.34A9.8,9.8,0,0,1,38.73,29.5Zm-4.61,3.12-.32.23a3.92,3.92,0,0,0-1.18,4.53,11,11,0,0,0-1.34,5.14v.16l.09.13c.09.12,2.3,3,7.36,3s7.28-2.88,7.37-3l.09-.13v-.16a11,11,0,0,0-1.34-5.14,4,4,0,0,0-1.18-4.53l-.32-.23-1.94,1.93a9.4,9.4,0,0,0-5.36,0Zm2.28,5.73a1.4,1.4,0,1,1-1.4,1.4h0a1.4,1.4,0,0,1,1.4-1.4Zm4.66,0a1.4,1.4,0,1,1-1.4,1.4,1.4,1.4,0,0,1,1.4-1.4Zm-3.49,3.73H39.9l-1.17,1.17Z" transform="translate(-4.85)" style="fill:#ed6270"/></svg>