<?xml version="1.0" encoding="utf-8"?>
<svg xmlns="http://www.w3.org/2000/svg" viewBox="0 0 80 80" fill="#e23175"><path d="M 30.841797 9.0097656 C 29.563021 8.93723 28.312842 9.6987628 27.839844 10.960938 A 1.0001 1.0001 0 0 0 27.808594 11.060547 C 27.437898 12.489827 26.69304 13.360582 25.291016 14.011719 C 23.888991 14.662856 21.791117 15 19 15 C 13.566159 15 9 19.597204 9 25.027344 C 9 30.233068 11.816088 33.157482 14.544922 34.552734 C 16.487626 35.546039 18.049915 35.788275 19 35.886719 L 19 66.800781 C 19 69.088973 20.896533 70.917969 23.166016 70.917969 C 24.300757 70.917969 25.318654 70.440373 25.990234 69.671875 C 26.661814 68.903377 27 67.881494 27 66.800781 L 27 54.753906 C 27.724123 54.634893 28.423381 54.550603 29.322266 54.183594 C 30.608268 53.658527 32.031474 52.885545 33.378906 51.855469 C 34.867086 50.717794 36.258117 49.231926 37.220703 47.441406 A 1.0001163 1.0001163 0 0 0 37.394531 47.197266 C 38.684599 44.61713 41.277144 43.990456 42.994141 44 C 44.34856 44.0077 45.6446 44.667738 46.589844 45.496094 C 47.062466 45.910272 47.443167 46.362983 47.685547 46.748047 C 47.927927 47.133111 48 47.474617 48 47.472656 L 48 66.800781 C 48 67.883976 48.34274 68.906493 49.017578 69.673828 C 49.692416 70.441164 50.711312 70.917969 51.845703 70.917969 C 54.038459 70.917969 56 69.283992 56 67 L 56 49 C 56 48.155697 56.633136 47.5 57.457031 47.5 C 58.280926 47.5 59 48.196513 59 49 L 59 67 C 59 69.224809 60.775191 71 63 71 C 65.224809 71 67 69.224809 67 67 L 67 33.847656 C 69.421813 32.13484 71 29.526756 71 26.470703 L 71 14 A 1.0001 1.0001 0 0 0 69.292969 13.292969 L 64.71875 17.867188 C 63.208653 17.268871 61.590659 17 60 17 C 58.420316 17 56.758148 17.258772 55.279297 17.867188 L 50.681641 13.291016 A 1.0001 1.0001 0 0 0 49.958984 13 A 1.0001 1.0001 0 0 0 48.976562 14 L 48.976562 25.875 C 45.774138 24.682443 41.053729 24.027344 36 24.027344 C 30.348848 24.027344 26.648048 25.332411 24.052734 26.626953 C 21.457421 27.921496 19.945778 29.015625 19 29.015625 C 16.802631 29.015625 15 27.221796 15 25.027344 C 15 22.832892 16.81211 21 19 21 C 23.881865 21 27.207709 19.945341 29.457031 18.339844 C 31.706354 16.734347 32.814423 14.601505 33.355469 12.707031 A 1.0001 1.0001 0 0 0 33.363281 12.675781 C 33.725973 11.22215 32.938579 9.6675236 31.496094 9.1269531 A 1.0001 1.0001 0 0 0 31.388672 9.09375 C 31.206968 9.048415 31.024479 9.0201279 30.841797 9.0097656 z M 30.478516 11.019531 C 30.592971 11.007326 30.715948 11.013584 30.84375 11.039062 C 31.342571 11.254843 31.546157 11.667117 31.421875 12.181641 C 30.964297 13.770921 30.114701 15.412035 28.294922 16.710938 C 26.466245 18.016189 23.595135 19 19 19 C 15.70189 19 13 21.735796 13 25.027344 C 13 28.318892 15.711369 31.015625 19 31.015625 C 21.054222 31.015625 22.542579 29.615473 24.947266 28.416016 C 27.351952 27.216558 30.651152 26.027344 36 26.027344 C 41.413452 26.027344 46.515166 26.90724 49.146484 28.113281 C 50.046958 32.742676 54.678398 36.003906 60 36.003906 C 61.784507 36.003906 63.486474 35.630496 65 34.96875 L 65 67 C 65 68.267191 64.267191 69 63 69 C 61.732809 69 61 68.267191 61 67 L 61 49 C 61 47.059487 59.377136 45.5 57.457031 45.5 C 55.536926 45.5 54 47.100303 54 49 L 54 67 C 54 68.208008 53.142948 68.917969 51.845703 68.917969 C 51.235094 68.917969 50.831443 68.70818 50.519531 68.353516 C 50.207619 67.998851 50 67.463587 50 66.800781 L 50 47.472656 C 50 46.805695 49.739104 46.258936 49.376953 45.683594 C 49.014802 45.108251 48.519206 44.527634 47.908203 43.992188 C 46.686197 42.921294 44.98244 42.011274 43.005859 42 C 41.709661 41.992793 40.014796 42.309621 38.480469 43.222656 C 38.49766 42.979888 38.505859 42.734315 38.505859 42.484375 A 1.0001 1.0001 0 0 0 38.402344 42.03125 L 38.458984 41.716797 L 37.847656 41.0625 L 37.5 41 L 36.699219 41.402344 L 36.572266 42.113281 A 1.0001 1.0001 0 0 0 36.505859 42.484375 C 36.505859 45.852032 34.542949 48.447028 32.164062 50.265625 C 30.974619 51.174923 29.692498 51.872255 28.566406 52.332031 C 27.440314 52.791808 26.433881 53 26 53 A 1.0001 1.0001 0 0 0 25 54 L 25 66.800781 C 25 67.466068 24.793295 68.001967 24.484375 68.355469 C 24.175455 68.70897 23.777275 68.917969 23.166016 68.917969 C 21.943498 68.917969 21 68.00459 21 66.800781 L 21 35.003906 A 1.0001 1.0001 0 0 0 20.025391 34.003906 C 20.025391 34.003906 17.726245 33.932736 15.455078 32.771484 C 13.183912 31.610237 11 29.54762 11 25.027344 C 11 20.731483 14.707841 17 19 17 C 21.944883 17 24.298588 16.676082 26.132812 15.824219 C 27.934693 14.987378 29.192744 13.548565 29.712891 11.662109 C 29.861933 11.264396 30.135148 11.056146 30.478516 11.019531 z M 50.976562 16.40625 L 54.294922 19.708984 A 1.0001 1.0001 0 0 0 55.478516 19.878906 C 56.595953 19.269691 58.35022 19 60 19 C 61.64978 19 63.256665 19.246497 64.552734 19.894531 A 1.0001 1.0001 0 0 0 65.707031 19.707031 L 69 16.414062 L 69 26.470703 C 69 30.715018 65.041098 34.003906 60 34.003906 C 54.958902 34.003906 50.976564 30.711728 50.976562 26.470703 L 50.976562 16.40625 z M 56.005859 22.009766 A 1.995 1.995 0 0 0 54.009766 24.005859 A 1.995 1.995 0 0 0 56.005859 26 A 1.995 1.995 0 0 0 58 24.005859 A 1.995 1.995 0 0 0 56.005859 22.009766 z M 63.994141 22.009766 A 1.995 1.995 0 0 0 62 24.005859 A 1.995 1.995 0 0 0 63.994141 26 A 1.995 1.995 0 0 0 65.990234 24.005859 A 1.995 1.995 0 0 0 63.994141 22.009766 z M 60 27 A 1 1 0 0 0 59 28 A 1 1 0 0 0 60 29 A 1 1 0 0 0 61 28 A 1 1 0 0 0 60 27 z M 33.494141 30.203125 L 32.693359 30.605469 L 32.535156 31.486328 L 33.146484 32.140625 L 33.494141 32.203125 L 34.294922 31.802734 L 34.453125 30.919922 L 33.841797 30.265625 L 33.494141 30.203125 z M 36.03125 33.191406 L 35.230469 33.591797 L 35.072266 34.474609 L 35.683594 35.128906 L 36.03125 35.191406 L 36.832031 34.789062 L 36.990234 33.908203 L 36.378906 33.251953 L 36.03125 33.191406 z M 37.140625 37.021484 L 36.339844 37.423828 L 36.181641 38.304688 L 36.792969 38.958984 L 37.140625 39.021484 L 37.941406 38.621094 L 38.099609 37.738281 L 37.486328 37.083984 L 37.140625 37.021484 z" fill="#e23175"/></svg>
