<?xml version="1.0" encoding="utf-8"?>
<svg xmlns="http://www.w3.org/2000/svg" viewBox="0 0 80 80" fill="#e23175"><path d="M 49.240234 22.240234 C 48.098706 22.240234 47.145124 22.948713 46.583984 23.84375 C 46.022844 24.738787 45.733073 25.84348 45.625 27.03125 C 45.602117 27.282744 45.592314 27.540382 45.585938 27.798828 C 45.32364 27.718949 45.238172 27.69067 44.794922 27.556641 C 42.97099 27.005119 39.366011 26.002034 32.039062 24.169922 C 27.049231 22.922369 22.715323 22.358518 18.941406 22.611328 C 17.683434 22.695598 16.48891 22.869812 15.351562 23.140625 C 11.556255 24.044322 8.4590375 26.075153 6.0390625 29.208984 A 1.0001166 1.0001166 0 0 0 5.9726562 29.171875 C 5.9726562 29.171875 2.9572552 27.619588 1.4941406 24.693359 A 1.0001 1.0001 0 0 0 0.61523438 24.126953 A 1.0001 1.0001 0 0 0 -0.29492188 25.587891 C 1.3797664 28.937267 4.3973467 30.598721 4.890625 30.855469 C 4.8182642 30.971157 4.7388323 31.075229 4.6679688 31.193359 A 1.0001 1.0001 0 0 0 4.6308594 31.261719 C -0.38915164 41.300722 -0.42721314 49.344576 1.0742188 54.898438 C 1.8249346 57.675368 2.9506313 59.827114 4.0234375 61.320312 C 4.5598406 62.066913 5.0812647 62.648455 5.5585938 63.074219 C 6.0354487 63.49956 6.3476792 63.831485 7.0761719 63.898438 C 10.10445 64.17563 13.257727 64.328427 15.166016 63.720703 C 15.643088 63.568772 16.117589 63.382255 16.458984 62.841797 C 16.80038 62.301339 16.662125 61.497511 16.335938 61.037109 C 15.707337 60.149865 14.573915 59.507041 12.642578 58.601562 C 12.990825 58.168419 13.888697 57.411401 14.935547 56.533203 C 15.544092 56.022697 16.209281 55.455025 16.865234 54.835938 C 21.749075 57.054089 25.754692 57.067357 29.673828 56.941406 C 33.695318 56.812167 37.653077 56.568765 42.972656 58.341797 C 44.078086 58.710273 45.74523 60.045675 47.355469 61.339844 C 48.965707 62.634013 50.470206 64.005859 52.318359 64.005859 C 54.094964 64.005859 55.177626 64.064222 56.082031 63.982422 C 56.986436 63.900632 57.801175 63.554295 58.414062 62.941406 C 58.728605 62.626864 58.943705 62.006035 58.814453 61.535156 C 58.685201 61.064277 58.417798 60.812759 58.169922 60.595703 C 57.674169 60.161592 57.080938 59.840417 56.478516 59.472656 C 55.876093 59.104896 55.279599 58.709616 54.886719 58.326172 C 54.493839 57.942728 54.345703 57.644229 54.345703 57.361328 C 54.345703 57.20148 54.478127 56.804653 54.859375 56.328125 C 55.240623 55.851597 55.831313 55.312141 56.537109 54.802734 C 57.541377 54.077908 58.781755 53.42048 59.978516 52.957031 C 60.499496 52.803169 60.760544 52.715084 61.060547 52.597656 C 61.169668 52.566778 61.286104 52.520342 61.392578 52.494141 C 63.939834 51.86885 66.618601 51.189488 68.197266 50.726562 C 72.539267 49.449751 75.505828 47.146163 76.892578 45.480469 C 78.177882 43.940971 79.828125 41.503906 79.828125 41.503906 A 1.0001 1.0001 0 0 0 80 40.943359 L 80 37.863281 A 1.0001 1.0001 0 0 0 79.798828 37.261719 C 79.798828 37.261719 79.043196 36.272253 77.462891 35.009766 C 75.882586 33.747278 73.432236 32.153767 69.923828 30.775391 C 63.292103 28.169931 58.847518 27.538918 58.466797 27.486328 C 58.305391 27.37018 56.742784 26.241904 54.8125 24.992188 C 53.798906 24.33596 52.731147 23.678124 51.785156 23.169922 C 51.312161 22.915821 50.870718 22.698602 50.462891 22.535156 C 50.055064 22.37171 49.708477 22.240234 49.240234 22.240234 z M 49.240234 24.240234 C 49.182494 24.240234 49.419468 24.272634 49.71875 24.392578 C 50.018032 24.512523 50.408526 24.699929 50.839844 24.931641 C 51.702478 25.395063 52.739156 26.032602 53.726562 26.671875 C 55.701375 27.950421 57.480469 29.234375 57.480469 29.234375 A 1.0001 1.0001 0 0 0 57.9375 29.414062 C 57.9375 29.414062 62.466353 29.995778 69.193359 32.638672 C 72.508951 33.941295 74.780649 35.426503 76.214844 36.572266 C 77.503884 37.602065 77.896439 38.14065 78 38.273438 L 78 40.613281 C 77.817477 40.879946 76.441584 42.90089 75.357422 44.199219 A 1.0001 1.0001 0 0 0 75.357422 44.201172 C 74.308172 45.461478 71.576764 47.649406 67.634766 48.808594 L 67.634766 48.806641 C 66.248969 49.213008 63.835927 49.827164 61.474609 50.410156 A 1.0001 1.0001 0 0 0 61.396484 50.404297 A 1.0001 1.0001 0 0 0 60.939453 50.498047 C 60.939453 50.498047 60.602813 50.640971 60.039062 50.820312 C 60.035895 50.82133 60.032465 50.821246 60.029297 50.822266 C 58.334255 51.360487 54.608516 52.2267 51.794922 50.59375 A 1.0001 1.0001 0 0 0 50.490234 50.806641 L 50.113281 50.994141 L 49.957031 51.876953 L 50.568359 52.53125 L 50.916016 52.59375 L 51.123047 52.490234 C 52.363712 53.141314 53.659604 53.454726 54.908203 53.550781 C 54.293334 54.034222 53.729459 54.537431 53.296875 55.078125 C 52.754686 55.755816 52.345703 56.495177 52.345703 57.361328 C 52.345703 58.360928 52.885114 59.167225 53.490234 59.757812 C 54.095354 60.3484 54.805422 60.793823 55.4375 61.179688 C 55.856658 61.43557 56.098292 61.602951 56.376953 61.789062 C 56.239314 61.835242 56.182453 61.964901 55.902344 61.990234 C 55.255999 62.048694 54.133754 62.005859 52.318359 62.005859 C 51.756513 62.005859 50.188934 61.052331 48.607422 59.78125 C 47.02591 58.510169 45.383039 57.037836 43.605469 56.445312 C 37.947048 54.559345 33.592635 54.813396 29.609375 54.941406 C 25.914966 55.060134 22.545162 55.062289 18.335938 53.292969 C 19.346998 52.082898 20.1729 50.690935 20.466797 49.074219 A 1.0004658 1.0004658 0 0 0 20.435547 48.595703 L 20.466797 48.421875 L 19.855469 47.767578 L 19.507812 47.705078 L 18.707031 48.105469 L 18.669922 48.3125 A 1.0004658 1.0004658 0 0 0 18.498047 48.716797 C 18.07365 51.051396 15.725626 53.261045 13.650391 55.001953 C 12.612773 55.872407 11.678531 56.591961 11.056641 57.376953 C 10.745695 57.769449 10.434802 58.22963 10.492188 58.894531 C 10.549568 59.559433 11.090701 60.074092 11.621094 60.320312 C 13.192805 61.050244 13.712073 61.501878 14.091797 61.820312 C 12.842441 62.097874 9.9997253 62.15672 7.2617188 61.90625 C 7.5698471 61.933971 7.2224825 61.879781 6.8886719 61.582031 C 6.5522353 61.28194 6.1123469 60.798042 5.6484375 60.152344 C 4.7206187 58.860948 3.6906904 56.917397 3.0039062 54.376953 C 1.6322972 49.303312 1.5930773 41.836349 6.4042969 32.193359 C 8.7529147 28.293662 11.755239 26.052473 15.814453 25.085938 C 19.885065 24.116688 25.070844 24.488779 31.552734 26.109375 C 38.862787 27.937263 42.447276 28.936225 44.214844 29.470703 C 45.083832 29.733468 45.483099 29.898326 45.740234 30 C 45.985055 31.486979 46.520413 32.941662 47.421875 34.113281 A 1.0006638 1.0006638 0 1 0 49.007812 32.892578 C 47.94946 31.517049 47.442334 29.134601 47.617188 27.212891 C 47.704617 26.252035 47.960812 25.414244 48.279297 24.90625 C 48.597782 24.398256 48.854763 24.240234 49.240234 24.240234 z M 60.255859 33.626953 A 2.7449999 2.7449999 0 0 0 59.734375 33.677734 C 59.705945 33.683199 59.678501 33.690932 59.650391 33.697266 A 2.7449999 2.7449999 0 0 0 59.228516 33.828125 C 59.194465 33.84188 59.162262 33.857982 59.128906 33.873047 A 2.7449999 2.7449999 0 0 0 58.740234 34.085938 C 58.722174 34.097937 58.705256 34.110634 58.6875 34.123047 A 2.7449999 2.7449999 0 0 0 58.322266 34.421875 C 58.313095 34.430977 58.305917 34.441942 58.296875 34.451172 A 2.7449999 2.7449999 0 0 0 57.990234 34.822266 C 57.977168 34.841344 57.965717 34.861439 57.953125 34.880859 A 2.7449999 2.7449999 0 0 0 57.742188 35.269531 C 57.732284 35.29208 57.724154 35.31503 57.714844 35.337891 A 2.7449999 2.7449999 0 0 0 57.566406 35.816406 C 57.566406 35.816406 57.566406 35.818359 57.566406 35.818359 A 2.7449999 2.7449999 0 0 0 57.509766 36.371094 A 2.7449999 2.7449999 0 0 0 57.564453 36.896484 C 57.568566 36.91764 57.573529 36.938006 57.578125 36.958984 A 2.7449999 2.7449999 0 0 0 57.720703 37.417969 C 57.728005 37.435622 57.73453 37.453238 57.742188 37.470703 A 2.7449999 2.7449999 0 0 0 57.96875 37.888672 C 57.979911 37.905447 57.992389 37.920988 58.003906 37.9375 A 2.7449999 2.7449999 0 0 0 58.314453 38.3125 C 58.315459 38.313505 58.317352 38.31345 58.318359 38.314453 A 2.7449999 2.7449999 0 0 0 58.722656 38.646484 A 2.7449999 2.7449999 0 0 0 59.185547 38.900391 C 59.185547 38.900391 59.1875 38.900391 59.1875 38.900391 A 2.7449999 2.7449999 0 0 0 59.701172 39.060547 A 2.7449999 2.7449999 0 0 0 60.255859 39.117188 A 2.7449999 2.7449999 0 0 0 60.779297 39.0625 C 60.80173 39.058153 60.823468 39.053718 60.845703 39.048828 A 2.7449999 2.7449999 0 0 0 61.300781 38.90625 C 61.317892 38.899171 61.334628 38.892179 61.351562 38.884766 A 2.7449999 2.7449999 0 0 0 62.783203 37.439453 A 2.7449999 2.7449999 0 0 0 63 36.371094 C 63 36.371094 63 36.369141 63 36.369141 C 63 36.369141 63 36.367188 63 36.367188 A 2.7449999 2.7449999 0 0 0 62.945312 35.837891 C 62.941688 35.819433 62.937586 35.801526 62.933594 35.783203 A 2.7449999 2.7449999 0 0 0 62.798828 35.347656 C 62.78357 35.309701 62.766883 35.273419 62.75 35.236328 A 2.7449999 2.7449999 0 0 0 62.546875 34.863281 C 62.530086 34.837808 62.511747 34.813932 62.494141 34.789062 A 2.7449999 2.7449999 0 0 0 62.210938 34.447266 C 62.192755 34.428796 62.172993 34.412481 62.154297 34.394531 A 2.7449999 2.7449999 0 0 0 61.839844 34.134766 C 61.801423 34.107512 61.762508 34.081931 61.722656 34.056641 A 2.7449999 2.7449999 0 0 0 61.359375 33.861328 C 61.335273 33.850723 61.311569 33.840005 61.287109 33.830078 A 2.7449999 2.7449999 0 0 0 60.845703 33.693359 C 60.830396 33.690002 60.816183 33.684742 60.800781 33.681641 A 2.7449999 2.7449999 0 0 0 60.255859 33.626953 z M 16.660156 36.351562 L 15.859375 36.751953 L 15.701172 37.634766 L 16.3125 38.289062 L 16.660156 38.351562 L 17.460938 37.949219 L 17.619141 37.068359 L 17.007812 36.414062 L 16.660156 36.351562 z M 18.574219 39.841797 L 17.771484 40.244141 L 17.615234 41.126953 L 18.226562 41.78125 L 18.574219 41.841797 L 19.375 41.441406 L 19.533203 40.558594 L 18.919922 39.904297 L 18.574219 39.841797 z M 45.392578 40.96875 L 44.591797 41.371094 L 44.433594 42.251953 L 45.046875 42.90625 L 45.392578 42.96875 L 46.193359 42.568359 L 46.351562 41.685547 L 45.740234 41.03125 L 45.392578 40.96875 z M 19.511719 43.720703 L 18.710938 44.123047 L 18.552734 45.003906 L 19.164062 45.658203 L 19.511719 45.720703 L 20.3125 45.320312 L 20.470703 44.4375 L 19.859375 43.783203 L 19.511719 43.720703 z M 45.681641 44.886719 L 44.880859 45.287109 L 44.722656 46.169922 L 45.333984 46.824219 L 45.681641 46.886719 L 46.482422 46.484375 L 46.640625 45.603516 L 46.029297 44.949219 L 45.681641 44.886719 z M 47.6875 48.320312 L 46.886719 48.722656 L 46.728516 49.603516 L 47.339844 50.257812 L 47.6875 50.320312 L 48.488281 49.919922 L 48.646484 49.037109 L 48.033203 48.382812 L 47.6875 48.320312 z" fill="#e23175"/></svg>
